# Blender 4.2.2 LTS
# www.blender.org
mtllib 2026Hub.mtl
o Cube.001
v 0.740280 0.872656 1.653168
v 0.740280 0.872656 3.068472
v 0.740281 0.137328 1.653168
v 0.740281 0.506518 2.377079
v 0.574214 0.823083 1.653168
v 0.574214 0.823083 3.068472
v 0.574214 0.872656 1.653168
v 0.574214 0.872656 3.068472
v -0.004879 0.823082 3.068472
v -0.004879 0.872655 1.653168
v -0.004879 0.823082 1.653168
v -0.004879 0.872655 3.068472
v 0.680600 0.872656 3.068472
v 0.688513 0.699119 3.068472
v 0.680600 0.872656 1.653168
v 0.176220 0.297972 1.417928
v 0.677963 0.142603 1.653168
v 0.349592 0.197874 1.417928
v 0.677963 0.511793 2.377079
v -0.350116 0.197246 1.417928
v 0.740280 0.699306 3.068472
v -0.175330 0.297971 1.417928
v 0.574214 0.823083 1.653168
v 0.176221 -0.310934 1.417928
v 0.688513 0.699119 1.653168
v 0.000522 -0.413483 1.417928
v 0.000369 0.400521 1.417928
v -0.750038 0.872655 1.653168
v -0.750038 0.872655 3.068472
v 0.022605 0.386662 1.417928
v -0.021714 -0.399625 1.417928
v -0.750037 0.137326 1.653168
v -0.750037 0.506517 2.377079
v -0.175329 -0.310934 1.417928
v -0.583972 0.823081 1.653168
v 0.351994 -0.006481 1.417928
v -0.583972 0.823081 3.068472
v 0.351007 -0.210209 1.417928
v -0.583972 0.872655 1.653168
v -0.348701 -0.210836 1.417928
v -0.351104 -0.006482 1.417928
v -0.583972 0.872655 3.068472
v -0.690358 0.872655 3.068472
v -0.698270 0.699118 3.068472
v -0.690358 0.872655 1.653168
v -0.687720 0.142601 1.653168
v -0.687720 0.511792 2.377079
v -0.750038 0.699305 3.068472
v -0.583972 0.823081 1.653168
v -0.698270 0.699118 1.653168
v 0.595835 0.585865 0.000001
v 0.595835 0.585865 1.259397
v 0.595836 -0.598450 0.000001
v 0.595836 -0.598450 1.259397
v -0.595386 0.585864 0.000001
v -0.595386 0.585864 1.259397
v -0.595385 -0.598451 0.000001
v -0.595385 -0.598451 1.259397
v 0.457870 0.448699 1.517841
v 0.457870 -0.461284 1.517841
v -0.457420 0.448698 1.517841
v -0.457419 -0.461285 1.517841
v 0.351994 -0.006481 1.517841
v 0.351007 -0.210209 1.517841
v 0.349592 0.197874 1.517841
v -0.175329 -0.310934 1.517841
v 0.176221 -0.310934 1.517841
v -0.021714 -0.399625 1.517841
v 0.000522 -0.413483 1.517841
v 0.176220 0.297972 1.517841
v 0.000369 0.400521 1.517841
v 0.022605 0.386662 1.517841
v -0.175330 0.297971 1.517841
v -0.348701 -0.210836 1.517841
v -0.351104 -0.006482 1.517841
v -0.350116 0.197246 1.517841
vn 1.0000 -0.0000 -0.0000
vn -0.0000 1.0000 -0.0000
vn -1.0000 -0.0000 -0.0000
vn 0.9330 -0.2783 0.2279
vn -0.0000 -0.0000 1.0000
vn -0.0000 -0.0000 -1.0000
vn -0.0000 -1.0000 -0.0000
vn -0.0814 -0.9617 0.2618
vn 0.0752 0.8883 -0.4530
vn -0.0035 0.9632 -0.2686
vn -0.7352 -0.6779 -0.0000
vn 0.9994 -0.0338 0.0058
vn -0.9330 -0.2783 0.2279
vn 0.0814 -0.9617 0.2618
vn -0.0752 0.8883 -0.4530
vn 0.0035 0.9632 -0.2686
vn 0.7352 -0.6779 -0.0000
vn -0.9994 -0.0338 0.0058
vn -0.8822 -0.0000 0.4709
vn 0.8822 -0.0000 0.4709
vn -0.0000 0.8833 0.4688
vn -0.0000 -0.8833 0.4688
vn -0.5000 -0.8660 -0.0000
vn 0.4993 -0.8664 -0.0000
vn -0.5041 0.8637 -0.0000
vn -0.5289 -0.8487 -0.0000
vn 0.5000 0.8660 -0.0000
vn -0.9999 -0.0118 -0.0000
vn -1.0000 0.0048 -0.0000
vn -0.4993 0.8664 -0.0000
vn 0.5289 0.8487 -0.0000
vn 0.5041 -0.8637 -0.0000
vn 0.9999 0.0118 -0.0000
vn 1.0000 -0.0048 -0.0000
vt 0.375000 0.000000
vt 0.625000 0.000000
vt 0.625000 0.250000
vt 0.375000 0.250000
vt 0.375000 0.996508
vt 0.625000 0.996508
vt 0.625000 1.000000
vt 0.375000 1.000000
vt 0.360866 0.750000
vt 0.360866 0.500000
vt 0.625000 0.485866
vt 0.639134 0.750000
vt 0.871508 0.500000
vt 0.875000 0.500000
vt 0.875000 0.750000
vt 0.871508 0.750000
vt 0.639134 0.500000
vt 0.865283 0.500000
vt 0.865283 0.750000
vt 0.375000 0.764134
vt 0.625000 0.764134
vt 0.625000 0.990283
vt 0.375000 0.990283
vt 0.134717 0.500000
vt 0.134717 0.750000
vt 0.375000 0.259717
vt 0.625000 0.259717
vt 0.375000 0.485866
vt 0.625000 0.253492
vt 0.000000 0.000000
vt 0.625000 0.500000
vt 0.375000 0.500000
vt 0.625000 0.750000
vt 0.375000 0.750000
vt 0.125000 0.500000
vt 0.125000 0.750000
vt 0.750039 0.736764
vt 0.756113 0.732957
vt 0.798071 0.708591
vt 0.845425 0.681091
vt 0.846081 0.624948
vt 0.845812 0.568978
vt 0.798071 0.541306
vt 0.750081 0.513133
vt 0.744007 0.516940
vt 0.702049 0.541306
vt 0.654695 0.568806
vt 0.654039 0.624948
vt 0.654309 0.680918
vt 0.702049 0.708591
s 0
usemtl 0.917647_0.917647_0.917647_0.000000_0.450980
f 1/1/1 2/2/1 4/3/1 3/4/1
f 15/5/2 13/6/2 2/7/2 1/8/2
f 10/9/3 11/10/3 9/11/3 12/12/3
f 14/13/4 4/14/4 2/15/4 13/16/4
f 9/17/5 6/18/5 8/19/5 12/12/5
f 10/20/2 12/21/2 8/22/2 7/23/2
f 5/24/6 11/10/6 10/9/6 7/25/6
f 5/26/7 6/27/7 9/11/7 11/28/7
f 6/18/5 14/13/5 13/16/5 8/19/5
f 7/23/2 8/22/2 13/6/2 15/5/2
f 4/3/8 14/29/8 19/29/8
f 19/30/9 4/30/9 3/30/9 17/30/9
f 14/30/6 13/30/6 2/30/6 21/30/6
f 2/2/3 4/3/3 21/30/3
f 21/30/10 4/30/10 14/30/10
f 14/13/11 6/18/11 23/18/11 25/13/11
f 15/5/6 1/8/6 25/13/6 23/18/6
f 7/23/6 15/5/6 23/18/6
f 19/29/12 17/30/12 25/13/12 14/29/12
f 1/8/6 3/30/6 17/30/6 25/13/6
f 28/1/3 32/4/3 33/3/3 29/2/3
f 45/5/2 28/8/2 29/7/2 43/6/2
f 44/13/13 43/16/13 29/15/13 33/14/13
f 9/17/5 12/12/5 42/19/5 37/18/5
f 10/20/2 39/23/2 42/22/2 12/21/2
f 35/24/6 39/25/6 10/9/6 11/10/6
f 35/26/7 11/28/7 9/11/7 37/27/7
f 37/18/5 42/19/5 43/16/5 44/13/5
f 39/23/2 45/5/2 43/6/2 42/22/2
f 33/3/14 47/29/14 44/29/14
f 47/30/15 46/30/15 32/30/15 33/30/15
f 44/30/6 48/30/6 29/30/6 43/30/6
f 29/2/1 48/30/1 33/3/1
f 48/30/16 44/30/16 33/30/16
f 44/13/17 50/13/17 49/18/17 37/18/17
f 45/5/6 49/18/6 50/13/6 28/8/6
f 39/23/6 49/18/6 45/5/6
f 47/29/18 44/29/18 50/13/18 46/30/18
f 28/8/6 50/13/6 46/30/6 32/30/6
f 51/1/1 52/2/1 54/3/1 53/4/1
f 53/4/7 54/3/7 58/31/7 57/32/7
f 57/32/3 58/31/3 56/33/3 55/34/3
f 55/34/2 56/33/2 52/7/2 51/8/2
f 53/35/6 57/32/6 55/34/6 51/36/6
f 56/33/19 58/31/19 62/31/19 61/33/19
f 60/14/5 59/15/5 71/37/5 72/38/5 70/39/5 65/40/5 63/41/5 64/42/5 67/43/5 69/44/5
f 71/37/5 59/15/5 61/33/5 62/31/5 60/14/5 69/44/5 68/45/5 66/46/5 74/47/5 75/48/5 76/49/5 73/50/5
f 54/3/20 52/2/20 59/2/20 60/3/20
f 52/7/21 56/33/21 61/33/21 59/7/21
f 58/31/22 54/3/22 60/3/22 62/31/22
f 70/30/23 16/30/23 18/30/23 65/30/23
f 20/30/24 22/30/24 73/30/24 76/30/24
f 67/30/25 24/30/25 26/30/25 69/30/25
f 71/30/26 27/30/26 30/30/26 72/30/26
f 31/30/27 34/30/27 66/30/27 68/30/27
f 65/30/28 18/30/28 36/30/28 63/30/28
f 63/30/29 36/30/29 38/30/29 64/30/29
f 34/30/27 40/30/27 74/30/27 66/30/27
f 64/30/30 38/30/30 24/30/30 67/30/30
f 26/30/31 31/30/31 68/30/31 69/30/31
f 22/30/32 27/30/32 71/30/32 73/30/32
f 40/30/33 41/30/33 75/30/33 74/30/33
f 72/30/23 30/30/23 16/30/23 70/30/23
f 41/30/34 20/30/34 76/30/34 75/30/34
o Cube.002
v -0.006124 0.397784 1.521767
v -0.006722 0.397644 1.522077
v -0.007004 0.397605 1.522267
v -0.007271 0.397594 1.522487
v -0.007520 0.397614 1.522727
v -0.007747 0.397654 1.522978
v -0.007950 0.397714 1.523247
v -0.008478 0.398184 1.524417
v -0.005255 0.401615 1.526757
v -0.004657 0.401755 1.526457
v -0.004375 0.401784 1.526257
v -0.004108 0.401795 1.526048
v -0.003859 0.401784 1.525807
v -0.003632 0.401744 1.525557
v -0.003429 0.401684 1.525287
v -0.002901 0.401214 1.524117
v -0.002828 0.400864 1.523527
v -0.002841 0.400664 1.523247
v -0.283523 0.180634 1.436277
v -0.247939 0.203654 1.439997
v -0.248188 0.203674 1.440237
v -0.247095 0.203764 1.439418
v -0.247390 0.203704 1.439587
v -0.246542 0.207444 1.444457
v -0.247672 0.203664 1.439777
v -0.245564 0.204384 1.439028
v -0.245866 0.204214 1.439047
v -0.248942 0.203964 1.441327
v -0.246173 0.204074 1.439087
v -0.244097 0.207744 1.442797
v -0.245620 0.207754 1.444137
v -0.151283 0.256984 1.436277
v -0.244527 0.207844 1.443317
v -0.244300 0.207804 1.443067
v -0.245043 0.207844 1.443777
v -0.244776 0.207854 1.443557
v -0.245325 0.207814 1.443968
v -0.248415 0.203714 1.440487
v -0.245271 0.204564 1.439047
v -0.526727 0.299024 1.824477
v -0.514926 0.301664 1.818227
v -0.514659 0.301674 1.818007
v -0.513804 0.301474 1.816967
v -0.514410 0.301664 1.817767
v -0.515208 0.301634 1.818417
v -0.516115 0.301384 1.818837
v -0.514183 0.301624 1.817517
v -0.501886 0.284674 1.781447
v -0.518501 0.297594 1.815207
v -0.518678 0.297674 1.815497
v -0.518071 0.297494 1.814687
v -0.518298 0.297524 1.814937
v -0.517555 0.297484 1.814237
v -0.517822 0.297474 1.814447
v -0.516978 0.297574 1.813877
v -0.516366 0.297764 1.813627
v -0.475958 0.278204 1.749278
v -0.475052 0.278444 1.748867
v -0.461729 0.261494 1.711897
v -0.490438 0.278064 1.761627
v -0.478521 0.274494 1.745937
v -0.478141 0.274344 1.745387
v -0.475900 0.274704 1.743987
v -0.473381 0.278054 1.746827
v -0.474253 0.278474 1.748217
v -0.474026 0.278434 1.747967
v -0.474769 0.278484 1.748667
v -0.474502 0.278494 1.748457
v -0.477914 0.274304 1.745127
v -0.477398 0.274304 1.744677
v -0.477665 0.274294 1.744897
v -0.476821 0.274394 1.744317
v -0.477116 0.274334 1.744487
v -0.473823 0.278374 1.747697
v -0.435189 0.255204 1.679477
v -0.436111 0.254894 1.679808
v -0.450281 0.254884 1.692067
v -0.434895 0.255264 1.679307
v -0.434612 0.255294 1.679117
v -0.434345 0.255304 1.678897
v -0.419588 0.237164 1.638907
v -0.437984 0.251154 1.675837
v -0.434096 0.255294 1.678667
v -0.433869 0.255254 1.678407
v -0.437508 0.251104 1.675337
v -0.437757 0.251124 1.675577
v -0.437241 0.251114 1.675127
v -0.438364 0.251304 1.676387
v -0.436664 0.251204 1.674767
v -0.435435 0.251664 1.674387
v -0.433490 0.255104 1.677858
v -0.392595 0.229104 1.603447
v -0.408140 0.230554 1.619077
v -0.375462 0.211684 1.562477
v -0.393859 0.225684 1.599407
v -0.391064 0.229724 1.603047
v -0.394238 0.225834 1.599957
v -0.393631 0.225644 1.599147
v -0.391617 0.226044 1.598007
v -0.390769 0.229784 1.602887
v -0.393116 0.225644 1.598697
v -0.393383 0.225634 1.598917
v -0.392538 0.225734 1.598337
v -0.392833 0.225674 1.598507
v -0.389971 0.229814 1.602237
v -0.389743 0.229774 1.601977
v -0.390486 0.229824 1.602687
v -0.390219 0.229834 1.602477
v -0.389540 0.229714 1.601708
v -0.364014 0.205074 1.542647
v -0.329587 0.185204 1.483018
v -0.346938 0.204254 1.526617
v -0.345238 0.204154 1.524997
v -0.346093 0.204354 1.526048
v -0.345845 0.204334 1.525807
v -0.346361 0.204344 1.526257
v -0.345618 0.204304 1.525557
v -0.347550 0.204064 1.526868
v -0.350464 0.200744 1.524417
v -0.349936 0.200274 1.523247
v -0.350112 0.200354 1.523527
v -0.349506 0.200164 1.522727
v -0.349733 0.200204 1.522978
v -0.348990 0.200164 1.522267
v -0.349257 0.200154 1.522487
v -0.348413 0.200254 1.521908
v -0.347183 0.200714 1.521527
v -0.348707 0.200194 1.522077
v -0.303138 0.170104 1.437467
v -0.302343 0.170134 1.436827
v -0.302890 0.170084 1.437237
v -0.301749 0.170274 1.436527
v -0.303365 0.170134 1.437718
v -0.302624 0.170104 1.437017
v -0.000032 0.345265 1.437718
v 0.000034 0.375504 1.483018
v -0.061257 0.314284 1.444268
v -0.061012 0.314504 1.444377
v -0.057552 0.315795 1.443317
v -0.057325 0.315755 1.443067
v -0.058068 0.315795 1.443777
v -0.057800 0.315804 1.443557
v -0.058645 0.315704 1.444137
v -0.060414 0.311654 1.439587
v -0.060697 0.311614 1.439777
v -0.058589 0.312334 1.439028
v -0.057122 0.315694 1.442797
v -0.058350 0.315764 1.443968
v -0.061643 0.311725 1.440758
v -0.060964 0.311604 1.439997
v -0.061213 0.311624 1.440237
v -0.060120 0.311714 1.439418
v -0.058890 0.312164 1.439047
v -0.061480 0.314064 1.444137
v -0.059198 0.312024 1.439087
v -0.061440 0.311664 1.440487
v 0.000034 0.415265 1.542647
v -0.008478 0.449144 1.600837
v 0.000034 0.466214 1.619077
v -0.004108 0.452754 1.602477
v -0.003859 0.452734 1.602237
v -0.008551 0.449484 1.601427
v 0.000034 0.428484 1.562477
v -0.002848 0.451995 1.600248
v -0.002828 0.451815 1.599957
v -0.002901 0.452165 1.600547
v -0.003429 0.452634 1.601708
v -0.004375 0.452744 1.602687
v -0.004952 0.452644 1.603047
v -0.004658 0.452704 1.602887
v -0.008392 0.448994 1.600547
v -0.007950 0.448665 1.599677
v -0.002889 0.451414 1.599407
v -0.003632 0.452695 1.601977
v -0.007004 0.448564 1.598697
v -0.007271 0.448554 1.598917
v -0.002841 0.451614 1.599677
v -0.006722 0.448594 1.598507
v -0.006124 0.448734 1.598198
v -0.007520 0.448564 1.599147
v -0.007747 0.448604 1.599407
v -0.004952 0.503605 1.679477
v 0.000034 0.514874 1.692067
v -0.006427 0.499605 1.674767
v -0.006722 0.499544 1.674937
v 0.000034 0.479434 1.638907
v -0.007004 0.499515 1.675127
v -0.004375 0.503694 1.679117
v -0.004108 0.503704 1.678897
v -0.007271 0.499504 1.675337
v -0.002848 0.502944 1.676677
v -0.002828 0.502764 1.676387
v -0.008127 0.499704 1.676387
v -0.002842 0.502564 1.676108
v -0.002889 0.502365 1.675837
v -0.003859 0.503684 1.678667
v -0.003632 0.503654 1.678407
v -0.007520 0.499515 1.675577
v -0.007747 0.499555 1.675837
v -0.002901 0.503115 1.676977
v 0.000034 0.561244 1.761627
v -0.002848 0.549314 1.746227
v -0.002828 0.549134 1.745937
v -0.004108 0.550074 1.748457
v -0.003859 0.550054 1.748217
v -0.007950 0.545984 1.745657
v 0.000034 0.528094 1.711897
v -0.003253 0.549874 1.747407
v -0.004375 0.550064 1.748667
v -0.002889 0.548734 1.745387
v -0.003632 0.550014 1.747967
v -0.004658 0.550024 1.748867
v -0.005564 0.549785 1.749278
v -0.007520 0.545884 1.745127
v -0.007747 0.545924 1.745387
v -0.007004 0.545884 1.744677
v -0.007272 0.545874 1.744897
v -0.006124 0.546055 1.744177
v -0.002842 0.548934 1.745657
v -0.006722 0.545915 1.744487
v 0.000034 0.574464 1.781447
v -0.003632 0.596384 1.817517
v -0.003429 0.596325 1.817247
v -0.003080 0.594664 1.814447
v 0.000034 0.597745 1.816387
v -0.003859 0.596424 1.817767
v -0.004375 0.596434 1.818227
v -0.004108 0.596445 1.818007
v -0.004658 0.596394 1.818417
v -0.005564 0.596155 1.818837
v -0.006722 0.592284 1.814037
v -0.006124 0.592424 1.813737
v -0.002889 0.595105 1.814937
v -0.007950 0.592354 1.815207
v -0.007004 0.592255 1.814237
v -0.007272 0.592244 1.814447
v -0.007520 0.592255 1.814687
v -0.007747 0.592295 1.814937
v -0.000986 0.605415 1.828757
v -0.001786 0.605384 1.829408
v -0.001235 0.605424 1.828997
v -0.001503 0.605415 1.829217
v -0.002387 0.605244 1.829717
v -0.000556 0.605304 1.828227
v -0.000758 0.605375 1.828498
v -0.528236 0.300064 1.827357
v -0.005690 0.425174 1.562477
v 0.345306 0.204155 1.524997
v 0.345686 0.204305 1.525557
v 0.345913 0.204335 1.525807
v 0.346161 0.204355 1.526048
v 0.346429 0.204345 1.526257
v 0.347006 0.204255 1.526617
v 0.347618 0.204065 1.526868
v 0.350180 0.200355 1.523527
v 0.350004 0.200275 1.523247
v 0.349801 0.200205 1.522978
v 0.349574 0.200165 1.522727
v 0.349325 0.200155 1.522487
v 0.349058 0.200165 1.522267
v 0.348775 0.200195 1.522077
v 0.348481 0.200255 1.521908
v 0.347251 0.200715 1.521527
v 0.058714 0.315705 1.444137
v 0.058419 0.315764 1.443968
v 0.019111 0.333335 1.436277
v 0.059635 0.315394 1.444457
v 0.057190 0.315694 1.442797
v 0.058657 0.312334 1.439028
v 0.057869 0.315804 1.443557
v 0.058136 0.315795 1.443777
v 0.057621 0.315795 1.443317
v 0.151351 0.256984 1.436277
v 0.062036 0.311915 1.441327
v 0.059267 0.312025 1.439087
v 0.058959 0.312165 1.439047
v 0.061033 0.311604 1.439997
v 0.060766 0.311615 1.439777
v 0.061508 0.311664 1.440487
v 0.057393 0.315755 1.443067
v 0.060188 0.311714 1.439418
v 0.060483 0.311655 1.439587
v 0.061281 0.311624 1.440237
v 0.000034 0.603144 1.824477
v 0.003497 0.596325 1.817247
v 0.003700 0.596384 1.817517
v 0.005632 0.596155 1.818837
v 0.004726 0.596394 1.818417
v 0.003927 0.596424 1.817767
v 0.004443 0.596434 1.818227
v 0.004176 0.596445 1.818007
v 0.007815 0.592295 1.814937
v 0.007588 0.592255 1.814687
v 0.008018 0.592354 1.815207
v 0.002910 0.595304 1.815207
v 0.002916 0.595684 1.815787
v 0.007073 0.592255 1.814237
v 0.006790 0.592284 1.814037
v 0.002957 0.595105 1.814937
v 0.006192 0.592424 1.813737
v 0.007340 0.592244 1.814447
v 0.005632 0.549785 1.749278
v 0.004443 0.550064 1.748667
v 0.004726 0.550024 1.748867
v 0.003928 0.550054 1.748217
v 0.004176 0.550074 1.748457
v 0.002896 0.549134 1.745937
v 0.002957 0.548734 1.745387
v 0.002910 0.548934 1.745657
v 0.006790 0.545915 1.744487
v 0.006192 0.546055 1.744177
v 0.007073 0.545884 1.744677
v 0.007588 0.545884 1.745127
v 0.007340 0.545874 1.744897
v 0.008018 0.545984 1.745657
v 0.007815 0.545924 1.745387
v 0.003321 0.549874 1.747407
v 0.003700 0.550014 1.747967
v 0.004176 0.503704 1.678897
v 0.004443 0.503694 1.679117
v 0.005020 0.503605 1.679477
v 0.002957 0.502365 1.675837
v 0.002910 0.502564 1.676108
v 0.006790 0.499544 1.674937
v 0.006495 0.499605 1.674767
v 0.007588 0.499515 1.675577
v 0.007340 0.499504 1.675337
v 0.007815 0.499555 1.675837
v 0.003928 0.503684 1.678667
v 0.003700 0.503654 1.678407
v 0.007073 0.499515 1.675127
v 0.008195 0.499704 1.676387
v 0.002896 0.502764 1.676387
v 0.002957 0.451414 1.599407
v 0.002910 0.451614 1.599677
v 0.005021 0.452644 1.603047
v 0.002896 0.451815 1.599957
v 0.004443 0.452744 1.602687
v 0.004726 0.452704 1.602887
v 0.003928 0.452734 1.602237
v 0.004176 0.452754 1.602477
v 0.003497 0.452634 1.601708
v 0.008547 0.449144 1.600837
v 0.008461 0.448994 1.600547
v 0.003700 0.452695 1.601977
v 0.006192 0.448734 1.598198
v 0.007073 0.448564 1.598697
v 0.006790 0.448594 1.598507
v 0.007588 0.448564 1.599147
v 0.007340 0.448554 1.598917
v 0.008019 0.448665 1.599677
v 0.007816 0.448604 1.599407
v 0.008620 0.449484 1.601427
v 0.007073 0.397605 1.522267
v 0.006790 0.397644 1.522077
v 0.004726 0.401755 1.526457
v 0.006192 0.397784 1.521767
v 0.007340 0.397594 1.522487
v 0.005324 0.401615 1.526757
v 0.004443 0.401784 1.526257
v 0.007588 0.397614 1.522727
v 0.008019 0.397714 1.523247
v 0.008547 0.398184 1.524417
v 0.003928 0.401784 1.525807
v 0.004176 0.401795 1.526048
v 0.003497 0.401684 1.525287
v 0.003701 0.401744 1.525557
v 0.007816 0.397654 1.522978
v 0.002969 0.401214 1.524117
v 0.002910 0.400664 1.523247
v 0.002896 0.400864 1.523527
v 0.303207 0.170105 1.437467
v 0.302411 0.170135 1.436827
v 0.302693 0.170105 1.437017
v 0.302958 0.170085 1.437237
v 0.303433 0.170135 1.437718
v 0.301818 0.170275 1.436527
v 0.249010 0.203964 1.441327
v 0.300600 0.170815 1.436277
v 0.329655 0.185205 1.483018
v 0.246610 0.207445 1.444457
v 0.245632 0.204385 1.439028
v 0.245688 0.207755 1.444137
v 0.248483 0.203715 1.440487
v 0.248256 0.203675 1.440237
v 0.245393 0.207815 1.443968
v 0.244595 0.207845 1.443317
v 0.244844 0.207854 1.443557
v 0.248007 0.203655 1.439997
v 0.247740 0.203665 1.439777
v 0.245111 0.207845 1.443777
v 0.246241 0.204075 1.439087
v 0.247163 0.203765 1.439418
v 0.247458 0.203705 1.439587
v 0.244165 0.207745 1.442797
v 0.244368 0.207805 1.443067
v 0.245934 0.204215 1.439047
v 0.390039 0.229815 1.602237
v 0.390287 0.229835 1.602477
v 0.391132 0.229725 1.603047
v 0.390554 0.229825 1.602687
v 0.390837 0.229785 1.602887
v 0.389608 0.229715 1.601708
v 0.389811 0.229775 1.601977
v 0.375530 0.211685 1.562477
v 0.394454 0.225945 1.600248
v 0.394306 0.225835 1.599957
v 0.389080 0.229245 1.600547
v 0.391685 0.226045 1.598007
v 0.392606 0.225735 1.598337
v 0.393184 0.225645 1.598697
v 0.392901 0.225675 1.598507
v 0.393927 0.225685 1.599407
v 0.393699 0.225645 1.599147
v 0.393451 0.225635 1.598917
v 0.434680 0.255295 1.679117
v 0.434963 0.255265 1.679307
v 0.437361 0.254205 1.679808
v 0.434413 0.255305 1.678897
v 0.419656 0.237165 1.638907
v 0.435503 0.251665 1.674387
v 0.435561 0.255125 1.679618
v 0.434164 0.255295 1.678667
v 0.436732 0.251205 1.674767
v 0.433558 0.255105 1.677858
v 0.437576 0.251105 1.675337
v 0.437309 0.251115 1.675127
v 0.438052 0.251155 1.675837
v 0.437825 0.251125 1.675577
v 0.438697 0.251545 1.676977
v 0.433937 0.255255 1.678407
v 0.474321 0.278475 1.748217
v 0.474570 0.278495 1.748457
v 0.475414 0.278385 1.749027
v 0.474837 0.278485 1.748667
v 0.478737 0.274605 1.746227
v 0.478589 0.274495 1.745937
v 0.475120 0.278445 1.748867
v 0.461797 0.261495 1.711897
v 0.478209 0.274345 1.745387
v 0.477982 0.274305 1.745127
v 0.473891 0.278375 1.747697
v 0.474094 0.278435 1.747967
v 0.473351 0.277145 1.745387
v 0.476889 0.274395 1.744317
v 0.477466 0.274305 1.744677
v 0.477184 0.274335 1.744487
v 0.477733 0.274295 1.744897
v 0.516183 0.301385 1.818837
v 0.514727 0.301675 1.818007
v 0.514994 0.301665 1.818227
v 0.501954 0.284675 1.781447
v 0.515276 0.301635 1.818417
v 0.516434 0.297765 1.813627
v 0.517046 0.297575 1.813877
v 0.517890 0.297475 1.814447
v 0.517623 0.297485 1.814237
v 0.522121 0.296325 1.816387
v 0.518139 0.297495 1.814687
v 0.518894 0.297785 1.815787
v 0.517341 0.297525 1.814037
v 0.518366 0.297525 1.814937
v 0.518569 0.297595 1.815207
v 0.514251 0.301625 1.817517
v 0.514478 0.301665 1.817767
v 0.513872 0.301475 1.816967
v 0.528247 0.301035 1.828757
v 0.000826 0.605375 1.828498
v 0.000624 0.605304 1.828227
v 0.001571 0.605415 1.829217
v 0.001303 0.605424 1.828997
v 0.002455 0.605244 1.829717
v 0.001054 0.605415 1.828757
v 0.001854 0.605384 1.829408
v 0.005758 0.425174 1.562477
v 0.006193 -0.407996 1.521767
v 0.006791 -0.407855 1.522077
v 0.007073 -0.407815 1.522267
v 0.007341 -0.407805 1.522487
v 0.007589 -0.407825 1.522727
v 0.007816 -0.407866 1.522978
v 0.008019 -0.407926 1.523247
v 0.008547 -0.408396 1.524417
v 0.005325 -0.411826 1.526757
v 0.004727 -0.411966 1.526457
v 0.004444 -0.411996 1.526257
v 0.004177 -0.412005 1.526048
v 0.003928 -0.411996 1.525807
v 0.003701 -0.411956 1.525557
v 0.003498 -0.411896 1.525287
v 0.002970 -0.411426 1.524117
v 0.002897 -0.411076 1.523527
v 0.002911 -0.410876 1.523247
v 0.397243 -0.387695 1.829977
v 0.283592 -0.190845 1.436277
v 0.248008 -0.213865 1.439997
v 0.248257 -0.213885 1.440237
v 0.247459 -0.213915 1.439587
v 0.246611 -0.217655 1.444457
v 0.247741 -0.213875 1.439777
v 0.245633 -0.214595 1.439028
v 0.245935 -0.214425 1.439047
v 0.249011 -0.214175 1.441327
v 0.246242 -0.214285 1.439087
v 0.244166 -0.217955 1.442797
v 0.245689 -0.217965 1.444137
v 0.151352 -0.267196 1.436277
v 0.244596 -0.218055 1.443317
v 0.244369 -0.218015 1.443067
v 0.245112 -0.218055 1.443777
v 0.244845 -0.218065 1.443557
v 0.245394 -0.218025 1.443968
v 0.248484 -0.213925 1.440487
v 0.245340 -0.214775 1.439047
v 0.265003 -0.464045 1.829977
v 0.526796 -0.309235 1.824477
v 0.514995 -0.311875 1.818227
v 0.514728 -0.311885 1.818007
v 0.513873 -0.311685 1.816967
v 0.514479 -0.311875 1.817767
v 0.515277 -0.311845 1.818417
v 0.516184 -0.311595 1.818837
v 0.514252 -0.311835 1.817517
v 0.501955 -0.294885 1.781447
v 0.518570 -0.307805 1.815207
v 0.518895 -0.307995 1.815787
v 0.518140 -0.307705 1.814687
v 0.518367 -0.307735 1.814937
v 0.517624 -0.307695 1.814237
v 0.517891 -0.307685 1.814447
v 0.517047 -0.307785 1.813877
v 0.516435 -0.307975 1.813627
v 0.476027 -0.288415 1.749278
v 0.475121 -0.288655 1.748867
v 0.461798 -0.271705 1.711897
v 0.490507 -0.288275 1.761627
v 0.478590 -0.284705 1.745937
v 0.478210 -0.284555 1.745387
v 0.475969 -0.284915 1.743987
v 0.473450 -0.288265 1.746827
v 0.474322 -0.288685 1.748217
v 0.474095 -0.288645 1.747967
v 0.474838 -0.288695 1.748667
v 0.474571 -0.288705 1.748457
v 0.477983 -0.284515 1.745127
v 0.477467 -0.284515 1.744677
v 0.477734 -0.284505 1.744897
v 0.476890 -0.284605 1.744317
v 0.477185 -0.284545 1.744487
v 0.473892 -0.288585 1.747697
v 0.435258 -0.265415 1.679477
v 0.436180 -0.265105 1.679808
v 0.450350 -0.265095 1.692067
v 0.434964 -0.265475 1.679307
v 0.434681 -0.265505 1.679117
v 0.434414 -0.265515 1.678897
v 0.419657 -0.247375 1.638907
v 0.438053 -0.261365 1.675837
v 0.434165 -0.265505 1.678667
v 0.433938 -0.265465 1.678407
v 0.437577 -0.261315 1.675337
v 0.437826 -0.261335 1.675577
v 0.437310 -0.261325 1.675127
v 0.436121 -0.261605 1.674517
v 0.438433 -0.261515 1.676387
v 0.436733 -0.261415 1.674767
v 0.433559 -0.265315 1.677858
v 0.391744 -0.239755 1.603297
v 0.408209 -0.240765 1.619077
v 0.375531 -0.221895 1.562477
v 0.393928 -0.235895 1.599407
v 0.394307 -0.236045 1.599957
v 0.393700 -0.235855 1.599147
v 0.391686 -0.236255 1.598007
v 0.390838 -0.239995 1.602887
v 0.393185 -0.235855 1.598697
v 0.393452 -0.235845 1.598917
v 0.392607 -0.235945 1.598337
v 0.392902 -0.235885 1.598507
v 0.390040 -0.240025 1.602237
v 0.389812 -0.239985 1.601977
v 0.390555 -0.240035 1.602687
v 0.390288 -0.240045 1.602477
v 0.389609 -0.239925 1.601708
v 0.364083 -0.215285 1.542647
v 0.329656 -0.195415 1.483018
v 0.347007 -0.214465 1.526617
v 0.345307 -0.214365 1.524997
v 0.346162 -0.214565 1.526048
v 0.345914 -0.214545 1.525807
v 0.346430 -0.214555 1.526257
v 0.345687 -0.214515 1.525557
v 0.347619 -0.214275 1.526868
v 0.350533 -0.210955 1.524417
v 0.350005 -0.210485 1.523247
v 0.350181 -0.210565 1.523527
v 0.349575 -0.210375 1.522727
v 0.349802 -0.210415 1.522978
v 0.349059 -0.210375 1.522267
v 0.349326 -0.210365 1.522487
v 0.348482 -0.210465 1.521908
v 0.347252 -0.210925 1.521527
v 0.348776 -0.210405 1.522077
v 0.303207 -0.180315 1.437467
v 0.302412 -0.180345 1.436827
v 0.302959 -0.180295 1.437237
v 0.301818 -0.180485 1.436527
v 0.303434 -0.180345 1.437718
v 0.302693 -0.180315 1.437017
v 0.000101 -0.355475 1.437718
v 0.000035 -0.385715 1.483018
v 0.061326 -0.324495 1.444268
v 0.061082 -0.324716 1.444377
v 0.057621 -0.326006 1.443317
v 0.057394 -0.325966 1.443067
v 0.058137 -0.326006 1.443777
v 0.057870 -0.326016 1.443557
v 0.058714 -0.325915 1.444137
v 0.060484 -0.321866 1.439587
v 0.060766 -0.321826 1.439777
v 0.058658 -0.322546 1.439028
v 0.057191 -0.325905 1.442797
v 0.058419 -0.325976 1.443968
v 0.061712 -0.321936 1.440758
v 0.061033 -0.321816 1.439997
v 0.061282 -0.321836 1.440237
v 0.060189 -0.321925 1.439418
v 0.058960 -0.322376 1.439047
v 0.061549 -0.324276 1.444137
v 0.059267 -0.322236 1.439087
v 0.061509 -0.321875 1.440487
v 0.000035 -0.425475 1.542647
v 0.000035 -0.476426 1.619077
v 0.004177 -0.462965 1.602477
v 0.003928 -0.462945 1.602237
v 0.005633 -0.462675 1.603297
v 0.000035 -0.438695 1.562477
v 0.002917 -0.462206 1.600248
v 0.002897 -0.462026 1.599957
v 0.002970 -0.462375 1.600547
v 0.003498 -0.462846 1.601708
v 0.004444 -0.462955 1.602687
v 0.004727 -0.462915 1.602887
v 0.008462 -0.459206 1.600547
v 0.008019 -0.458875 1.599677
v 0.002958 -0.461625 1.599407
v 0.003701 -0.462906 1.601977
v 0.007074 -0.458775 1.598697
v 0.007341 -0.458765 1.598917
v 0.002911 -0.461826 1.599677
v 0.006791 -0.458806 1.598507
v 0.006193 -0.458946 1.598198
v 0.007589 -0.458775 1.599147
v 0.007816 -0.458815 1.599407
v 0.005021 -0.513816 1.679477
v 0.000035 -0.525085 1.692067
v 0.006496 -0.509816 1.674767
v 0.006791 -0.509756 1.674937
v 0.000035 -0.489645 1.638907
v 0.007074 -0.509725 1.675127
v 0.004444 -0.513906 1.679117
v 0.004177 -0.513915 1.678897
v 0.007341 -0.509715 1.675337
v 0.002917 -0.513155 1.676677
v 0.002897 -0.512976 1.676387
v 0.008196 -0.509916 1.676387
v 0.002911 -0.512775 1.676108
v 0.002958 -0.512575 1.675837
v 0.003929 -0.513895 1.678667
v 0.003701 -0.513866 1.678407
v 0.007589 -0.509725 1.675577
v 0.007816 -0.509766 1.675837
v 0.000035 -0.571455 1.761627
v 0.002917 -0.559525 1.746227
v 0.002897 -0.559346 1.745937
v 0.004177 -0.560286 1.748457
v 0.003929 -0.560266 1.748217
v 0.008020 -0.556195 1.745657
v 0.000035 -0.538306 1.711897
v 0.003322 -0.560086 1.747407
v 0.004444 -0.560275 1.748667
v 0.002958 -0.558946 1.745387
v 0.003701 -0.560225 1.747967
v 0.004727 -0.560235 1.748867
v 0.005633 -0.559995 1.749278
v 0.007589 -0.556096 1.745127
v 0.007817 -0.556135 1.745387
v 0.007074 -0.556096 1.744677
v 0.007341 -0.556085 1.744897
v 0.006193 -0.556266 1.744177
v 0.002911 -0.559145 1.745657
v 0.006791 -0.556126 1.744487
v 0.000035 -0.584676 1.781447
v 0.003701 -0.606595 1.817517
v 0.003498 -0.606535 1.817247
v 0.003149 -0.604876 1.814447
v 0.000035 -0.607955 1.816387
v 0.003929 -0.606635 1.817767
v 0.004444 -0.606646 1.818227
v 0.004177 -0.606655 1.818007
v 0.004727 -0.606606 1.818417
v 0.005633 -0.606366 1.818837
v 0.006496 -0.602556 1.813877
v 0.006791 -0.602496 1.814037
v 0.002958 -0.605316 1.814937
v 0.008020 -0.602566 1.815207
v 0.007074 -0.602465 1.814237
v 0.007341 -0.602456 1.814447
v 0.007589 -0.602465 1.814687
v 0.007817 -0.602506 1.814937
v 0.001055 -0.615626 1.828757
v 0.001855 -0.615596 1.829408
v 0.001304 -0.615636 1.828997
v 0.001572 -0.615626 1.829217
v 0.002456 -0.615456 1.829717
v 0.000625 -0.615515 1.828227
v 0.000828 -0.615586 1.828498
v 0.528305 -0.310275 1.827357
v 0.263415 -0.461295 1.824477
v -0.352508 0.189714 1.522727
v -0.353142 0.189204 1.523817
v -0.353313 0.189174 1.524117
v -0.353485 0.189174 1.524417
v -0.353656 0.189204 1.524707
v -0.354143 0.189534 1.525557
v -0.353987 0.195284 1.525287
v -0.353656 0.195474 1.524707
v -0.353485 0.195514 1.524417
v -0.353313 0.195514 1.524117
v -0.353142 0.195474 1.523817
v -0.352655 0.195144 1.522978
v -0.307214 -0.114386 1.444268
v -0.302598 -0.157806 1.436277
v -0.306198 -0.116116 1.442508
v -0.305348 -0.116116 1.441037
v -0.304186 -0.113056 1.439028
v -0.306030 -0.116186 1.442218
v -0.305516 -0.116186 1.441327
v -0.306198 -0.109996 1.442508
v -0.305859 -0.116226 1.441927
v -0.305687 -0.116226 1.441627
v -0.302598 -0.005106 1.436277
v -0.305516 -0.109926 1.441327
v -0.305348 -0.109996 1.441037
v -0.305859 -0.109886 1.441927
v -0.305687 -0.109886 1.441627
v -0.304195 -0.112716 1.439047
v -0.306030 -0.109926 1.442218
v -0.526726 -0.309236 1.824477
v -0.522707 -0.302676 1.817517
v -0.521707 -0.296736 1.815787
v -0.522388 -0.296816 1.816967
v -0.522220 -0.296736 1.816677
v -0.521220 -0.297066 1.814937
v -0.521877 -0.296706 1.816077
v -0.522049 -0.296706 1.816378
v -0.522049 -0.303046 1.816378
v -0.522220 -0.303006 1.816677
v -0.521877 -0.303046 1.816077
v -0.501885 -0.294886 1.781447
v -0.521376 -0.302826 1.815207
v -0.521707 -0.303006 1.815787
v -0.521220 -0.302676 1.814937
v -0.461728 -0.271706 1.711897
v -0.490437 -0.288276 1.761627
v -0.481382 -0.279746 1.745937
v -0.481550 -0.279826 1.746227
v -0.481892 -0.273516 1.746827
v -0.481721 -0.273516 1.746527
v -0.482063 -0.273556 1.747117
v -0.481892 -0.279856 1.746827
v -0.482063 -0.279826 1.747117
v -0.481721 -0.279856 1.746527
v -0.480916 -0.279316 1.745127
v -0.482231 -0.273626 1.747407
v -0.481550 -0.273556 1.746227
v -0.481382 -0.273626 1.745937
v -0.482550 -0.279496 1.747967
v -0.450280 -0.265096 1.692067
v -0.442074 -0.256566 1.677858
v -0.419587 -0.247376 1.638907
v -0.441062 -0.256456 1.676108
v -0.441735 -0.250336 1.677267
v -0.441564 -0.250336 1.676977
v -0.441906 -0.250366 1.677568
v -0.441735 -0.256676 1.677267
v -0.441906 -0.256636 1.677568
v -0.440497 -0.255686 1.675127
v -0.441393 -0.250366 1.676677
v -0.441564 -0.256676 1.676977
v -0.441393 -0.256636 1.676677
v -0.442074 -0.250446 1.677858
v -0.408139 -0.240766 1.619077
v -0.397610 -0.231196 1.600837
v -0.397781 -0.231156 1.601137
v -0.375461 -0.221896 1.562477
v -0.396780 -0.230836 1.599407
v -0.396936 -0.230976 1.599677
v -0.397438 -0.231196 1.600547
v -0.397267 -0.231156 1.600248
v -0.397610 -0.224856 1.600837
v -0.397438 -0.224856 1.600547
v -0.397781 -0.224896 1.601137
v -0.398267 -0.230836 1.601977
v -0.397267 -0.224896 1.600248
v -0.397099 -0.224966 1.599957
v -0.397948 -0.224966 1.601427
v -0.364013 -0.215286 1.542647
v -0.352973 -0.199496 1.523527
v -0.353312 -0.199386 1.524117
v -0.353141 -0.199416 1.523817
v -0.353484 -0.199386 1.524417
v -0.353986 -0.205496 1.525287
v -0.353655 -0.199416 1.524707
v -0.354142 -0.199746 1.525557
v -0.353141 -0.205686 1.523817
v -0.353312 -0.205726 1.524117
v -0.353655 -0.205686 1.524707
v -0.353484 -0.205726 1.524417
v -0.352654 -0.205356 1.522978
v -0.303584 -0.180386 1.437987
v -0.305687 0.106014 1.441627
v -0.305516 0.105974 1.441327
v -0.307214 0.101514 1.444268
v -0.303585 0.170174 1.437987
v -0.304187 0.102844 1.439028
v -0.305348 0.105904 1.441037
v -0.306198 0.105904 1.442508
v -0.305348 0.099784 1.441037
v -0.304195 0.102504 1.439047
v -0.306030 0.099714 1.442218
v -0.305859 0.099674 1.441927
v -0.305516 0.099714 1.441327
v -0.305859 0.106014 1.441927
v -0.306030 0.105974 1.442218
v -0.305687 0.099674 1.441627
v -0.306517 0.100034 1.443067
v -0.397611 0.214644 1.600837
v -0.397782 0.214684 1.601137
v -0.397949 0.214754 1.601427
v -0.397268 0.220944 1.600248
v -0.397100 0.220874 1.599957
v -0.397439 0.220984 1.600547
v -0.397439 0.214644 1.600547
v -0.397100 0.214754 1.599957
v -0.396781 0.220624 1.599407
v -0.397782 0.220944 1.601137
v -0.398268 0.220624 1.601977
v -0.397268 0.214684 1.600248
v -0.397611 0.220984 1.600837
v -0.441736 0.240124 1.677267
v -0.441907 0.240154 1.677568
v -0.441394 0.246424 1.676677
v -0.442075 0.246354 1.677858
v -0.442075 0.240234 1.677858
v -0.441565 0.240124 1.676977
v -0.441063 0.246244 1.676108
v -0.441907 0.246424 1.677568
v -0.441394 0.240154 1.676677
v -0.440760 0.240664 1.675577
v -0.441565 0.246464 1.676977
v -0.441736 0.246464 1.677267
v -0.481551 0.269614 1.746227
v -0.481383 0.269534 1.745937
v -0.481383 0.263414 1.745937
v -0.482232 0.269534 1.747407
v -0.482064 0.269614 1.747117
v -0.481893 0.263304 1.746827
v -0.482064 0.263344 1.747117
v -0.481722 0.263304 1.746527
v -0.481551 0.263344 1.746227
v -0.481722 0.269644 1.746527
v -0.482551 0.269284 1.747967
v -0.482232 0.263414 1.747407
v -0.481893 0.269644 1.746827
v -0.522708 0.292464 1.817517
v -0.520937 0.292084 1.814447
v -0.522053 0.296324 1.816387
v -0.521708 0.292794 1.815787
v -0.521878 0.292834 1.816077
v -0.521377 0.292614 1.815207
v -0.522050 0.292834 1.816378
v -0.522221 0.292794 1.816677
v -0.522389 0.286604 1.816967
v -0.522050 0.286494 1.816378
v -0.522221 0.286524 1.816677
v -0.521878 0.286494 1.816077
v -0.521708 0.286524 1.815787
v -0.521221 0.286854 1.814937
v -0.528387 0.299804 1.827357
v -0.528559 0.299764 1.827647
v -0.529050 0.299444 1.828498
v -0.528214 0.299804 1.827057
v -0.528043 0.299764 1.826757
v -0.529049 -0.309656 1.828498
v -0.528558 -0.309976 1.827647
v -0.528386 -0.310016 1.827357
v -0.528213 -0.310016 1.827057
v -0.528042 -0.309976 1.826757
v -0.345237 -0.214366 1.524997
v -0.345617 -0.214516 1.525557
v -0.345844 -0.214546 1.525807
v -0.346092 -0.214566 1.526048
v -0.346360 -0.214556 1.526257
v -0.346937 -0.214466 1.526617
v -0.347549 -0.214276 1.526868
v -0.350111 -0.210566 1.523527
v -0.349935 -0.210486 1.523247
v -0.349732 -0.210416 1.522978
v -0.349505 -0.210376 1.522727
v -0.349256 -0.210366 1.522487
v -0.348989 -0.210376 1.522267
v -0.348706 -0.210406 1.522077
v -0.348412 -0.210466 1.521908
v -0.347182 -0.210926 1.521527
v -0.058644 -0.325916 1.444137
v -0.058350 -0.325976 1.443968
v -0.019042 -0.343546 1.436277
v -0.059566 -0.325606 1.444457
v -0.057121 -0.325905 1.442797
v -0.058588 -0.322546 1.439028
v -0.057800 -0.326016 1.443557
v -0.058067 -0.326006 1.443777
v -0.057551 -0.326006 1.443317
v -0.151282 -0.267196 1.436277
v -0.061967 -0.322126 1.441327
v -0.059198 -0.322236 1.439087
v -0.058890 -0.322376 1.439047
v -0.060963 -0.321816 1.439997
v -0.060696 -0.321826 1.439777
v -0.061439 -0.321875 1.440487
v -0.057324 -0.325966 1.443067
v -0.060119 -0.321926 1.439418
v -0.060414 -0.321866 1.439587
v -0.061212 -0.321836 1.440237
v 0.000035 -0.613355 1.824477
v -0.003428 -0.606535 1.817247
v -0.003631 -0.606595 1.817517
v -0.005563 -0.606366 1.818837
v -0.004657 -0.606606 1.818417
v -0.003858 -0.606635 1.817767
v -0.004374 -0.606646 1.818227
v -0.004107 -0.606655 1.818007
v -0.007746 -0.602506 1.814937
v -0.007519 -0.602465 1.814687
v -0.007949 -0.602566 1.815207
v -0.002840 -0.605515 1.815207
v -0.002847 -0.605895 1.815787
v -0.007003 -0.602465 1.814237
v -0.006721 -0.602496 1.814037
v -0.002887 -0.605316 1.814937
v -0.006123 -0.602636 1.813737
v -0.007270 -0.602456 1.814447
v -0.005563 -0.559995 1.749278
v -0.004374 -0.560275 1.748667
v -0.004657 -0.560235 1.748867
v -0.003858 -0.560266 1.748217
v -0.004107 -0.560286 1.748457
v -0.002827 -0.559346 1.745937
v -0.002888 -0.558946 1.745387
v -0.002841 -0.559145 1.745657
v -0.006721 -0.556126 1.744487
v -0.006123 -0.556266 1.744177
v -0.007003 -0.556096 1.744677
v -0.007519 -0.556096 1.745127
v -0.007270 -0.556085 1.744897
v -0.007949 -0.556195 1.745657
v -0.007746 -0.556135 1.745387
v -0.003252 -0.560086 1.747407
v -0.003631 -0.560225 1.747967
v -0.004107 -0.513915 1.678897
v -0.004374 -0.513906 1.679117
v -0.004951 -0.513816 1.679477
v -0.002888 -0.512575 1.675837
v -0.002841 -0.512775 1.676108
v -0.006721 -0.509756 1.674937
v -0.006426 -0.509816 1.674767
v -0.007519 -0.509725 1.675577
v -0.007270 -0.509715 1.675337
v -0.007746 -0.509766 1.675837
v -0.003858 -0.513895 1.678667
v -0.003631 -0.513866 1.678407
v -0.007003 -0.509725 1.675127
v -0.008126 -0.509916 1.676387
v -0.002827 -0.512976 1.676387
v -0.005563 -0.462675 1.603297
v -0.002888 -0.461625 1.599407
v -0.002841 -0.461826 1.599677
v -0.002827 -0.462026 1.599957
v -0.004374 -0.462955 1.602687
v -0.004657 -0.462915 1.602887
v -0.003858 -0.462945 1.602237
v -0.004107 -0.462965 1.602477
v -0.003428 -0.462846 1.601708
v -0.008391 -0.459206 1.600547
v -0.003631 -0.462906 1.601977
v -0.006123 -0.458946 1.598198
v -0.007003 -0.458775 1.598697
v -0.006721 -0.458806 1.598507
v -0.007519 -0.458775 1.599147
v -0.007271 -0.458765 1.598917
v -0.007949 -0.458875 1.599677
v -0.007746 -0.458815 1.599407
v -0.007003 -0.407815 1.522267
v -0.006721 -0.407855 1.522077
v -0.004657 -0.411966 1.526457
v -0.006123 -0.407996 1.521767
v -0.007271 -0.407805 1.522487
v -0.005255 -0.411826 1.526757
v -0.004374 -0.411996 1.526257
v -0.007519 -0.407825 1.522727
v -0.007949 -0.407926 1.523247
v -0.008477 -0.408396 1.524417
v -0.003858 -0.411996 1.525807
v -0.004107 -0.412005 1.526048
v -0.003428 -0.411896 1.525287
v -0.003631 -0.411956 1.525557
v -0.007746 -0.407866 1.522978
v -0.002900 -0.411426 1.524117
v -0.002841 -0.410876 1.523247
v -0.002827 -0.411076 1.523527
v -0.303137 -0.180316 1.437467
v -0.302342 -0.180346 1.436827
v -0.302623 -0.180316 1.437017
v -0.302889 -0.180296 1.437237
v -0.303364 -0.180346 1.437718
v -0.248941 -0.214176 1.441327
v -0.300530 -0.181026 1.436277
v -0.329586 -0.195416 1.483018
v -0.246541 -0.217656 1.444457
v -0.245563 -0.214596 1.439028
v -0.245619 -0.217966 1.444137
v -0.248414 -0.213926 1.440487
v -0.248187 -0.213886 1.440237
v -0.245324 -0.218026 1.443968
v -0.244526 -0.218056 1.443317
v -0.244775 -0.218066 1.443557
v -0.247938 -0.213866 1.439997
v -0.247671 -0.213876 1.439777
v -0.245042 -0.218056 1.443777
v -0.246172 -0.214286 1.439087
v -0.247389 -0.213916 1.439587
v -0.244096 -0.217956 1.442797
v -0.244299 -0.218016 1.443067
v -0.245865 -0.214426 1.439047
v -0.389970 -0.240026 1.602237
v -0.390218 -0.240046 1.602477
v -0.391063 -0.239936 1.603047
v -0.390485 -0.240036 1.602687
v -0.390768 -0.239996 1.602887
v -0.389539 -0.239926 1.601708
v -0.389742 -0.239986 1.601977
v -0.394385 -0.236156 1.600248
v -0.394237 -0.236046 1.599957
v -0.389011 -0.239456 1.600547
v -0.391616 -0.236256 1.598007
v -0.392537 -0.235946 1.598337
v -0.393115 -0.235856 1.598697
v -0.392832 -0.235886 1.598507
v -0.393858 -0.235896 1.599407
v -0.393630 -0.235856 1.599147
v -0.393382 -0.235846 1.598917
v -0.434611 -0.265506 1.679117
v -0.434894 -0.265476 1.679307
v -0.437292 -0.264416 1.679808
v -0.434344 -0.265516 1.678897
v -0.435492 -0.265336 1.679618
v -0.434095 -0.265506 1.678667
v -0.436051 -0.261606 1.674517
v -0.436663 -0.261416 1.674767
v -0.433489 -0.265316 1.677858
v -0.437507 -0.261316 1.675337
v -0.437240 -0.261326 1.675127
v -0.437983 -0.261366 1.675837
v -0.437756 -0.261336 1.675577
v -0.438628 -0.261756 1.676977
v -0.433868 -0.265466 1.678407
v -0.474252 -0.288686 1.748217
v -0.474501 -0.288706 1.748457
v -0.475345 -0.288596 1.749027
v -0.474768 -0.288696 1.748667
v -0.478668 -0.284816 1.746227
v -0.478520 -0.284706 1.745937
v -0.475051 -0.288656 1.748867
v -0.478140 -0.284556 1.745387
v -0.477913 -0.284516 1.745127
v -0.473822 -0.288586 1.747697
v -0.474025 -0.288646 1.747967
v -0.473282 -0.287356 1.745387
v -0.476820 -0.284606 1.744317
v -0.477397 -0.284516 1.744677
v -0.477115 -0.284546 1.744487
v -0.477664 -0.284506 1.744897
v -0.516114 -0.311596 1.818837
v -0.514658 -0.311886 1.818007
v -0.514925 -0.311876 1.818227
v -0.515207 -0.311846 1.818417
v -0.516365 -0.307976 1.813627
v -0.516977 -0.307786 1.813877
v -0.517821 -0.307686 1.814447
v -0.517554 -0.307696 1.814237
v -0.522052 -0.306536 1.816387
v -0.518070 -0.307706 1.814687
v -0.518825 -0.307996 1.815787
v -0.517272 -0.307736 1.814037
v -0.518297 -0.307736 1.814937
v -0.518500 -0.307806 1.815207
v -0.514182 -0.311836 1.817517
v -0.514409 -0.311876 1.817767
v -0.513803 -0.311686 1.816967
v -0.528178 -0.311246 1.828757
v -0.000757 -0.615586 1.828498
v -0.000555 -0.615515 1.828227
v -0.001501 -0.615626 1.829217
v -0.001233 -0.615636 1.828997
v -0.002386 -0.615456 1.829717
v -0.000984 -0.615626 1.828757
v -0.001785 -0.615596 1.829408
v 0.352577 -0.199925 1.522727
v 0.353211 -0.199415 1.523817
v 0.353382 -0.199385 1.524117
v 0.353554 -0.199385 1.524417
v 0.353725 -0.199415 1.524707
v 0.354212 -0.199745 1.525557
v 0.354056 -0.205495 1.525287
v 0.353725 -0.205685 1.524707
v 0.353554 -0.205725 1.524417
v 0.353382 -0.205725 1.524117
v 0.353211 -0.205685 1.523817
v 0.352724 -0.205355 1.522978
v 0.307284 0.104175 1.444268
v 0.302667 0.147595 1.436277
v 0.306268 0.105905 1.442508
v 0.305418 0.105905 1.441037
v 0.304256 0.102845 1.439028
v 0.306100 0.105975 1.442218
v 0.305586 0.105975 1.441327
v 0.306268 0.099785 1.442508
v 0.305929 0.106015 1.441927
v 0.305757 0.106015 1.441627
v 0.302668 -0.005105 1.436277
v 0.305586 0.099715 1.441327
v 0.305418 0.099785 1.441037
v 0.305929 0.099675 1.441927
v 0.305757 0.099675 1.441627
v 0.304265 0.102505 1.439047
v 0.306100 0.099715 1.442218
v 0.526795 0.299025 1.824477
v 0.522776 0.292465 1.817517
v 0.521776 0.286525 1.815787
v 0.522457 0.286605 1.816967
v 0.522289 0.286525 1.816677
v 0.521289 0.286855 1.814937
v 0.521946 0.286495 1.816077
v 0.522118 0.286495 1.816378
v 0.522118 0.292835 1.816378
v 0.522289 0.292795 1.816677
v 0.521946 0.292835 1.816077
v 0.521445 0.292615 1.815207
v 0.521776 0.292795 1.815787
v 0.521289 0.292465 1.814937
v 0.490506 0.278065 1.761627
v 0.481451 0.269535 1.745937
v 0.481619 0.269615 1.746227
v 0.481961 0.263305 1.746827
v 0.481790 0.263305 1.746527
v 0.482132 0.263345 1.747117
v 0.481961 0.269645 1.746827
v 0.482132 0.269615 1.747117
v 0.481790 0.269645 1.746527
v 0.480985 0.269105 1.745127
v 0.482300 0.263415 1.747407
v 0.481619 0.263345 1.746227
v 0.481451 0.263415 1.745937
v 0.482619 0.269285 1.747967
v 0.450349 0.254885 1.692067
v 0.442143 0.246355 1.677858
v 0.440975 0.246095 1.675837
v 0.441131 0.246245 1.676108
v 0.440828 0.240665 1.675577
v 0.441804 0.240125 1.677267
v 0.441633 0.240125 1.676977
v 0.441975 0.240155 1.677568
v 0.441804 0.246465 1.677267
v 0.441975 0.246425 1.677568
v 0.441462 0.240155 1.676677
v 0.441633 0.246465 1.676977
v 0.441462 0.246425 1.676677
v 0.442143 0.240235 1.677858
v 0.408208 0.230555 1.619077
v 0.397679 0.220985 1.600837
v 0.397850 0.220945 1.601137
v 0.396849 0.220625 1.599407
v 0.397005 0.220765 1.599677
v 0.397507 0.220985 1.600547
v 0.397336 0.220945 1.600248
v 0.397679 0.214645 1.600837
v 0.397507 0.214645 1.600547
v 0.397850 0.214685 1.601137
v 0.398336 0.220625 1.601977
v 0.397336 0.214685 1.600248
v 0.397168 0.214755 1.599957
v 0.398017 0.214755 1.601427
v 0.364082 0.205075 1.542647
v 0.353042 0.189285 1.523527
v 0.353381 0.189175 1.524117
v 0.353210 0.189205 1.523817
v 0.353553 0.189175 1.524417
v 0.354055 0.195285 1.525287
v 0.353724 0.189205 1.524707
v 0.354211 0.189535 1.525557
v 0.353210 0.195475 1.523817
v 0.353381 0.195515 1.524117
v 0.353724 0.195475 1.524707
v 0.353553 0.195515 1.524417
v 0.352723 0.195145 1.522978
v 0.303653 0.170175 1.437987
v 0.305757 -0.116225 1.441627
v 0.305586 -0.116185 1.441327
v 0.307284 -0.111725 1.444268
v 0.303654 -0.180385 1.437987
v 0.304256 -0.113055 1.439028
v 0.305418 -0.116115 1.441037
v 0.306268 -0.116115 1.442508
v 0.305418 -0.109995 1.441037
v 0.304265 -0.112715 1.439047
v 0.306100 -0.109925 1.442218
v 0.305929 -0.109885 1.441927
v 0.305586 -0.109925 1.441327
v 0.305929 -0.116225 1.441927
v 0.306100 -0.116185 1.442218
v 0.305757 -0.109885 1.441627
v 0.306587 -0.110245 1.443067
v 0.397680 -0.224855 1.600837
v 0.397851 -0.224895 1.601137
v 0.398018 -0.224965 1.601427
v 0.397337 -0.231155 1.600248
v 0.397169 -0.231085 1.599957
v 0.397508 -0.231195 1.600547
v 0.397508 -0.224855 1.600547
v 0.397169 -0.224965 1.599957
v 0.396850 -0.230835 1.599407
v 0.397851 -0.231155 1.601137
v 0.398337 -0.230835 1.601977
v 0.397337 -0.224895 1.600248
v 0.397680 -0.231195 1.600837
v 0.441805 -0.250335 1.677267
v 0.441976 -0.250365 1.677568
v 0.441463 -0.256635 1.676677
v 0.442144 -0.256565 1.677858
v 0.442144 -0.250445 1.677858
v 0.441634 -0.250335 1.676977
v 0.441132 -0.256455 1.676108
v 0.441976 -0.256635 1.677568
v 0.441463 -0.250365 1.676677
v 0.440829 -0.250875 1.675577
v 0.441634 -0.256675 1.676977
v 0.441805 -0.256675 1.677267
v 0.481620 -0.279825 1.746227
v 0.481452 -0.279745 1.745937
v 0.481452 -0.273625 1.745937
v 0.482133 -0.279825 1.747117
v 0.481962 -0.273515 1.746827
v 0.482133 -0.273555 1.747117
v 0.481791 -0.273515 1.746527
v 0.481620 -0.273555 1.746227
v 0.481791 -0.279855 1.746527
v 0.482620 -0.279495 1.747967
v 0.482301 -0.273625 1.747407
v 0.481962 -0.279855 1.746827
v 0.522777 -0.302675 1.817517
v 0.521006 -0.302295 1.814447
v 0.522122 -0.306535 1.816387
v 0.521777 -0.303005 1.815787
v 0.521947 -0.303045 1.816077
v 0.521446 -0.302825 1.815207
v 0.522119 -0.303045 1.816378
v 0.522290 -0.303005 1.816677
v 0.522458 -0.296815 1.816967
v 0.522119 -0.296705 1.816378
v 0.522290 -0.296735 1.816677
v 0.521947 -0.296705 1.816077
v 0.521777 -0.296735 1.815787
v 0.521290 -0.297065 1.814937
v 0.528456 -0.310015 1.827357
v 0.528628 -0.309975 1.827647
v 0.529119 -0.309655 1.828498
v 0.528283 -0.310015 1.827057
v 0.528112 -0.309975 1.826757
v 0.529118 0.299445 1.828498
v 0.528627 0.299765 1.827647
v 0.528455 0.299805 1.827357
v 0.528282 0.299805 1.827057
v 0.528111 0.299765 1.826757
vn 0.4474 -0.7650 0.4632
vn 0.1321 -0.9860 0.1014
vn 0.3966 -0.8211 0.4106
vn 0.4628 -0.6911 0.5552
vn 0.5028 -0.6189 0.6035
vn 0.4275 -0.7445 0.5128
vn 0.4331 -0.7502 0.4996
vn -0.4411 0.7383 0.5102
vn -0.4465 0.7292 0.5185
vn -0.2748 0.8967 0.3471
vn -0.3924 0.7932 0.4657
vn -0.4334 0.7498 0.4999
vn -0.4380 0.7440 0.5047
vn -0.4337 0.7497 0.4998
vn -0.4297 0.7548 0.4957
vn -0.8596 0.0289 0.5102
vn -0.8529 -0.1717 0.4931
vn -0.8316 0.2910 0.4731
vn -0.7749 0.4414 0.4525
vn -0.8660 -0.0000 0.5000
vn -0.8640 0.0290 0.5027
vn -0.8653 0.0009 0.5012
vn -0.5125 0.8170 0.2643
vn -0.8584 0.1483 0.4912
vn -0.8620 0.0976 0.4974
vn -0.8659 0.0075 0.5002
vn -0.8412 -0.2433 0.4828
vn -0.7975 0.3844 0.4650
vn -0.8646 0.0434 0.5005
vn -0.8651 0.0307 0.5006
vn -0.8528 -0.1383 0.5035
vn 0.2203 0.8860 0.4080
vn 0.2184 0.8883 0.4041
vn 0.2379 0.8642 0.4434
vn 0.4490 -0.7611 0.4682
vn 0.3410 0.8957 0.2852
vn 0.4133 -0.8021 0.4310
vn 0.1017 -0.9928 0.0637
vn 0.3724 -0.8519 0.3681
vn 0.4176 -0.8091 0.4134
vn 0.4634 -0.6989 0.5448
vn 0.5048 -0.6268 0.5936
vn 0.4271 -0.7519 0.5022
vn 0.4264 -0.7565 0.4958
vn 0.4328 -0.7501 0.5001
vn 0.4356 -0.7461 0.5035
vn 0.4311 -0.7503 0.5012
vn 0.1903 -0.9667 0.1713
vn 0.4178 -0.7852 0.4571
vn 0.4475 -0.7481 0.4900
vn 0.0032 -0.8343 0.5513
vn 0.0048 -0.8175 0.5760
vn 0.0040 -0.8262 0.5634
vn 0.4192 -0.7581 0.4996
vn 0.3832 -0.8029 0.4567
vn 0.3614 -0.8268 0.4311
vn 0.4217 -0.7555 0.5014
vn 0.4468 -0.7197 0.5315
vn 0.4749 -0.6743 0.5655
vn 0.1797 -0.9700 0.1638
vn 0.4093 -0.7881 0.4597
vn 0.4422 -0.7467 0.4970
vn 0.4330 -0.7503 0.4997
vn 0.4393 -0.7423 0.5060
vn 0.4390 -0.7439 0.5038
vn 0.4283 -0.7584 0.4914
vn 0.4422 -0.7373 0.5107
vn 0.4171 -0.7583 0.5010
vn 0.4425 -0.7221 0.5318
vn 0.4709 -0.6761 0.5666
vn 0.4331 -0.7528 0.4956
vn 0.4315 -0.7499 0.5014
vn 0.4477 -0.7219 0.5276
vn 0.3459 -0.8153 0.4645
vn 0.4338 -0.7489 0.5010
vn 0.4338 -0.7447 0.5072
vn 0.3716 -0.8235 0.4287
vn 0.1721 -0.9726 0.1566
vn 0.4090 -0.7852 0.4650
vn 0.4444 -0.7396 0.5055
vn 0.4333 -0.7496 0.5004
vn 0.4346 -0.7476 0.5023
vn 0.4288 -0.7518 0.5009
vn 0.4164 -0.7678 0.4869
vn 0.4527 -0.7306 0.5111
vn 0.4200 -0.7574 0.5000
vn 0.4455 -0.7210 0.5307
vn 0.4740 -0.6751 0.5654
vn 0.1938 -0.9641 0.1814
vn 0.4137 -0.7826 0.4651
vn 0.4446 -0.7430 0.5002
vn 0.4544 -0.7159 0.5301
vn 0.4244 -0.7607 0.4911
vn 0.4863 -0.6632 0.5689
vn 0.4443 -0.7380 0.5079
vn 0.3915 -0.7981 0.4580
vn 0.4481 -0.7315 0.5138
vn 0.4411 -0.7401 0.5076
vn 0.5673 -0.5336 0.6273
vn 0.4351 -0.7474 0.5020
vn 0.4333 -0.7489 0.5013
vn 0.4262 -0.7587 0.4927
vn 0.4499 -0.7255 0.5208
vn 0.4827 -0.6681 0.5663
vn 0.4116 -0.7807 0.4702
vn 0.4325 -0.7491 0.5018
vn 0.4489 -0.7294 0.5162
vn 0.4529 -0.7240 0.5203
vn 0.4045 -0.7832 0.4722
vn 0.4425 -0.7389 0.5082
vn 0.4330 -0.7500 0.5000
vn 0.5430 -0.5759 0.6112
vn 0.4075 -0.7788 0.4769
vn 0.4755 -0.6791 0.5592
vn 0.3776 -0.8222 0.4260
vn 0.4727 -0.6853 0.5540
vn 0.4061 -0.7817 0.4734
vn 0.4455 -0.7345 0.5119
vn 0.4472 -0.7320 0.5140
vn 0.3867 -0.8037 0.4522
vn 0.4035 -0.7795 0.4791
vn 0.4351 -0.7482 0.5009
vn 0.4258 -0.7607 0.4899
vn 0.3897 -0.8081 0.4417
vn 0.4831 -0.6664 0.5679
vn 0.4658 -0.7004 0.5408
vn 0.4409 -0.7412 0.5063
vn 0.4486 -0.7296 0.5162
vn 0.3956 -0.7939 0.4617
vn 0.4211 -0.7632 0.4902
vn 0.5211 -0.5811 0.6251
vn 0.4298 -0.7570 0.4921
vn 0.3530 -0.8360 0.4200
vn 0.4938 -0.6685 0.5562
vn 0.3695 -0.8210 0.4353
vn 0.4000 -0.7822 0.4777
vn 0.4323 -0.7493 0.5016
vn 0.4217 -0.7636 0.4890
vn 0.4464 -0.7307 0.5166
vn 0.4866 -0.6620 0.5701
vn 0.4080 -0.7848 0.4665
vn 0.4505 -0.7259 0.5197
vn 0.4544 -0.7220 0.5217
vn 0.4019 -0.7864 0.4690
vn 0.5005 -0.6303 0.5935
vn 0.3835 -0.8166 0.4315
vn 0.4723 -0.6862 0.5532
vn 0.4043 -0.7840 0.4711
vn 0.3901 -0.7997 0.4565
vn 0.4494 -0.7308 0.5138
vn 0.5818 -0.4938 0.6463
vn 0.4378 -0.7473 0.4998
vn 0.3634 -0.8356 0.4119
vn 0.4471 -0.7294 0.5178
vn 0.4334 -0.7499 0.4999
vn 0.4630 -0.7038 0.5388
vn 0.4406 -0.7414 0.5061
vn 0.4131 -0.7740 0.4799
vn 0.4578 -0.7164 0.5265
vn 0.4419 -0.7397 0.5075
vn 0.4902 -0.6515 0.5790
vn 0.4188 -0.7716 0.4787
vn 0.4296 -0.7572 0.4920
vn 0.4075 -0.7794 0.4758
vn 0.3934 -0.7960 0.4599
vn 0.4499 -0.7284 0.5167
vn 0.3555 -0.8333 0.4233
vn 0.5315 -0.6007 0.5972
vn 0.4299 -0.7540 0.4967
vn 0.3392 -0.8582 0.3853
vn 0.4829 -0.6820 0.5493
vn 0.4774 0.7256 0.4955
vn 0.4029 0.7920 0.4587
vn 0.2613 0.9001 0.3486
vn 0.3650 -0.8383 0.4050
vn 0.3731 -0.8305 0.4136
vn 0.4221 -0.7587 0.4962
vn 0.6304 -0.4552 0.6288
vn 0.6657 -0.3361 0.6662
vn 0.3999 -0.7874 0.4691
vn 0.4923 -0.6491 0.5799
vn 0.5094 -0.6132 0.6037
vn 0.4224 -0.7655 0.4854
vn 0.4587 -0.7195 0.5214
vn 0.3816 -0.8088 0.4474
vn 0.3556 -0.8329 0.4241
vn 0.4129 -0.7737 0.4806
vn 0.4932 -0.6562 0.5711
vn 0.6319 -0.2317 0.7396
vn 0.5018 -0.6396 0.5824
vn 0.4362 -0.7482 0.5000
vn 0.4317 -0.7472 0.5053
vn 0.4264 -0.7544 0.4990
vn 0.4305 -0.7532 0.4973
vn 0.4096 -0.7732 0.4840
vn 0.4054 -0.7786 0.4789
vn 0.4950 -0.6407 0.5869
vn 0.3612 -0.8383 0.4084
vn 0.4868 -0.6619 0.5700
vn 0.4135 -0.7737 0.4801
vn 0.4004 -0.7888 0.4664
vn 0.4483 -0.7318 0.5133
vn 0.4445 -0.7330 0.5149
vn 0.4290 -0.7582 0.4910
vn 0.4804 -0.6782 0.5562
vn 0.3805 -0.8166 0.4340
vn 0.5469 -0.5482 0.6328
vn 0.5721 -0.4451 0.6889
vn 0.4360 -0.7457 0.5039
vn 0.4265 -0.7484 0.5080
vn 0.4222 -0.7542 0.5028
vn 0.5002 -0.6293 0.5948
vn 0.4147 -0.7769 0.4738
vn 0.5127 -0.6012 0.6130
vn 0.4187 -0.7707 0.4803
vn 0.4319 -0.7505 0.5003
vn 0.4425 -0.7386 0.5086
vn 0.3780 -0.8132 0.4425
vn 0.4143 -0.7720 0.4820
vn 0.4735 -0.6890 0.5487
vn 0.5402 -0.5578 0.6302
vn 0.5070 -0.6342 0.5838
vn 0.4389 -0.7450 0.5023
vn 0.4374 -0.7221 0.5359
vn 0.4272 -0.7371 0.5236
vn 0.4359 -0.7458 0.5038
vn 0.4334 -0.7354 0.5209
vn 0.4280 -0.7431 0.5143
vn 0.4409 -0.7371 0.5121
vn 0.4917 -0.6514 0.5778
vn 0.3620 -0.8374 0.4096
vn 0.4786 -0.6748 0.5618
vn 0.4150 -0.7720 0.4814
vn 0.4426 -0.7372 0.5105
vn 0.4462 -0.7362 0.5088
vn 0.3983 -0.7891 0.4677
vn 0.4884 -0.6647 0.5654
vn 0.3848 -0.8119 0.4391
vn 0.5476 -0.5424 0.6371
vn 0.5666 -0.4578 0.6851
vn 0.4300 -0.7540 0.4965
vn 0.4059 -0.7750 0.4844
vn 0.3874 -0.7981 0.4615
vn 0.4898 -0.6529 0.5779
vn 0.5919 -0.3378 0.7318
vn 0.4688 -0.6905 0.5509
vn 0.3997 -0.7893 0.4661
vn 0.4649 -0.7089 0.5304
vn 0.3555 -0.8344 0.4212
vn 0.4133 -0.7734 0.4806
vn 0.4767 -0.6857 0.5501
vn 0.3899 -0.8070 0.4435
vn 0.5436 -0.5466 0.6370
vn 0.3951 -0.7992 0.4530
vn 0.3921 -0.7957 0.4616
vn 0.4265 -0.7627 0.4861
vn 0.4066 -0.7959 0.4486
vn 0.3849 -0.8193 0.4249
vn 0.6411 -0.0387 0.7665
vn 0.1080 -0.9822 0.1539
vn 0.1092 -0.9862 0.1241
vn 0.4643 -0.6945 0.5496
vn 0.3066 -0.8868 0.3457
vn 0.4317 -0.7574 0.4899
vn 0.3938 -0.8036 0.4463
vn 0.4026 -0.7901 0.4622
vn 0.4045 -0.7889 0.4627
vn 0.4305 -0.7543 0.4957
vn 0.4059 -0.7828 0.4717
vn 0.4007 -0.7884 0.4667
vn 0.4775 -0.6912 0.5425
vn 0.4559 -0.7203 0.5228
vn 0.4934 -0.6458 0.5827
vn 0.4230 -0.7654 0.4851
vn 0.5001 -0.6346 0.5892
vn 0.4253 -0.7618 0.4886
vn 0.4653 -0.7097 0.5291
vn 0.3766 -0.8119 0.4462
vn 0.4502 -0.7288 0.5159
vn 0.4403 -0.7408 0.5073
vn 0.5907 -0.3710 0.7166
vn 0.4303 -0.7590 0.4887
vn 0.3919 -0.8056 0.4444
vn 0.4017 -0.7910 0.4614
vn 0.4077 -0.7837 0.4686
vn 0.4342 -0.7496 0.4996
vn 0.4038 -0.7856 0.4688
vn 0.3988 -0.7909 0.4641
vn 0.4776 -0.6909 0.5427
vn 0.3956 -0.7946 0.4607
vn 0.4081 -0.7834 0.4687
vn 0.4362 -0.7480 0.5002
vn 0.4064 -0.7862 0.4655
vn 0.4401 -0.7377 0.5120
vn 0.3827 -0.8147 0.4356
vn 0.4279 -0.7585 0.4915
vn 0.4115 -0.7755 0.4789
vn 0.4012 -0.7878 0.4673
vn 0.4773 -0.6913 0.5425
vn 0.3987 -0.7904 0.4652
vn 0.3867 -0.8064 0.4473
vn 0.5700 -0.5552 0.6057
vn 0.5491 -0.5910 0.5909
vn 0.5285 -0.6235 0.5761
vn -0.4306 -0.7458 0.5083
vn -0.5090 -0.6162 0.6010
vn -0.4676 -0.6905 0.5518
vn 0.4335 -0.7498 0.4999
vn 0.4368 -0.7456 0.5032
vn 0.4285 -0.7533 0.4989
vn 0.4245 -0.7586 0.4943
vn -0.4327 -0.7507 0.4993
vn -0.4191 -0.7698 0.4814
vn -0.4490 -0.7298 0.5156
vn -0.4186 -0.7589 0.4988
vn -0.3614 -0.8268 0.4311
vn -0.3832 -0.8029 0.4566
vn -0.4288 -0.7555 0.4953
vn -0.4372 -0.7442 0.5050
vn -0.4333 -0.7501 0.4996
vn -0.4988 -0.6316 0.5936
vn -0.4591 -0.7006 0.5462
vn -0.4234 -0.7529 0.5039
vn 0.8659 0.0010 0.5002
vn 0.8747 -0.0387 0.4832
vn 0.8688 -0.1202 0.4804
vn 0.8669 0.1544 0.4740
vn -0.1048 -0.9445 0.3113
vn -0.0895 -0.9500 0.2991
vn -0.0969 -0.9474 0.3052
vn 0.4329 -0.7500 0.5001
vn 0.4354 -0.7469 0.5026
vn 0.4270 -0.7574 0.4940
vn 0.4636 -0.6860 0.5608
vn 0.5000 0.5346 0.6813
vn 0.4171 -0.7728 0.4784
vn 0.5125 -0.6082 0.6061
vn 0.4228 -0.7652 0.4856
vn 0.4613 -0.7153 0.5249
vn 0.3732 -0.8164 0.4407
vn 0.4496 -0.7290 0.5161
vn 0.4413 -0.7396 0.5082
vn 0.4142 -0.7811 0.4673
vn 0.4323 -0.7504 0.5000
vn 0.4445 -0.7421 0.5018
vn 0.4303 -0.7550 0.4948
vn 0.4291 -0.7531 0.4987
vn 0.4654 -0.6908 0.5533
vn 0.2949 -0.8759 0.3820
vn 0.4335 -0.7496 0.5001
vn 0.4296 -0.7524 0.4993
vn 0.3840 -0.8111 0.4413
vn -0.4331 0.7501 0.4998
vn -0.4254 0.7593 0.4924
vn -0.4258 0.7392 0.5217
vn -0.5344 -0.4272 0.7293
vn -0.4173 0.7727 0.4784
vn -0.5057 0.6218 0.5980
vn -0.4272 0.7594 0.4908
vn -0.4599 0.7176 0.5230
vn -0.3752 0.8136 0.4442
vn -0.4507 0.7279 0.5168
vn -0.4422 0.7387 0.5086
vn -0.3846 -0.8358 0.3917
vn -0.1174 -0.9896 0.0831
vn -0.4331 -0.7859 0.4414
vn -0.0055 0.9996 0.0286
vn -0.4434 -0.8480 0.2902
vn -0.4967 -0.8061 0.3217
vn -0.4466 0.7651 0.4638
vn -0.1318 0.9861 0.1015
vn -0.3957 0.8212 0.4110
vn -0.4635 0.6926 0.5527
vn -0.5037 0.6206 0.6010
vn -0.4280 0.7458 0.5105
vn -0.4331 0.7502 0.4996
vn -0.4304 0.7550 0.4947
vn -0.4352 0.7435 0.5078
vn -0.4529 0.7130 0.5352
vn -0.3367 0.8268 0.4506
vn -0.4335 0.7496 0.5001
vn -0.4312 0.7496 0.5021
vn -0.3802 0.8149 0.4375
vn -0.4406 0.7365 0.5133
vn -0.4305 0.7516 0.4998
vn -0.4355 0.7424 0.5091
vn -0.3107 0.8616 0.4013
vn -0.4333 0.7498 0.5000
vn -0.4183 0.7703 0.4814
vn -0.4031 0.7908 0.4607
vn -0.4150 0.7836 0.4622
vn -0.5901 0.5042 0.6305
vn -0.4331 0.7498 0.5002
vn -0.4480 0.7417 0.4991
vn -0.2505 -0.8472 0.4686
vn -0.2535 -0.8452 0.4705
vn -0.2848 -0.7999 0.5283
vn -0.4180 -0.7476 0.5162
vn -0.4308 -0.7290 0.5319
vn -0.4333 -0.7498 0.5001
vn -0.4372 -0.7627 0.4767
vn -0.3949 -0.8114 0.4309
vn -0.4269 -0.7561 0.4960
vn -0.4031 -0.7865 0.4678
vn -0.5678 -0.4540 0.6866
vn -0.4030 -0.7878 0.4658
vn -0.4587 -0.7096 0.5349
vn -0.3959 -0.7967 0.4567
vn -0.4266 -0.7599 0.4904
vn -0.3344 -0.8678 0.3674
vn -0.3766 -0.8228 0.4256
vn -0.4572 0.7570 0.4668
vn -0.3465 -0.8941 0.2839
vn -0.4211 0.7986 0.4299
vn -0.0991 0.9932 0.0617
vn -0.3667 0.8558 0.3649
vn -0.4122 0.8131 0.4111
vn -0.4635 0.6991 0.5444
vn -0.5049 0.6271 0.5932
vn -0.4272 0.7521 0.5018
vn -0.4295 0.7537 0.4974
vn -0.4328 0.7501 0.5001
vn -0.4329 0.7491 0.5014
vn -0.1717 0.9726 0.1570
vn -0.4064 0.7872 0.4639
vn -0.4398 0.7444 0.5024
vn -0.0073 0.8001 0.5998
vn -0.0102 0.7853 0.6191
vn -0.0089 0.7922 0.6101
vn -0.4196 0.7547 0.5044
vn -0.4423 0.7220 0.5320
vn -0.4676 0.6815 0.5629
vn -0.2088 0.9589 0.1921
vn -0.4202 0.7842 0.4565
vn -0.4464 0.7517 0.4855
vn -0.3714 0.8182 0.4388
vn -0.4522 0.7314 0.5106
vn -0.4330 0.7502 0.4997
vn -0.4396 0.7418 0.5064
vn -0.3029 0.8975 0.3205
vn -0.4938 0.6683 0.5564
vn -0.4329 -0.7501 0.5000
vn -0.4269 -0.7629 0.4855
vn -0.3191 -0.8689 0.3785
vn -0.5593 -0.5240 0.6423
vn -0.3409 -0.8517 0.3979
vn -0.5289 -0.5740 0.6251
vn -0.3292 -0.8642 0.3806
vn -0.2881 -0.9032 0.3181
vn -0.4206 0.7563 0.5010
vn -0.4468 0.7190 0.5324
vn -0.4760 0.6715 0.5679
vn -0.1904 0.9665 0.1721
vn -0.4178 0.7843 0.4586
vn -0.4489 0.7452 0.4931
vn -0.4324 0.7502 0.5002
vn -0.4301 0.7509 0.5011
vn -0.4152 0.7702 0.4841
vn -0.4591 0.7253 0.5129
vn -0.4194 0.7573 0.5006
vn -0.4455 0.7201 0.5320
vn -0.4747 0.6728 0.5675
vn -0.1859 0.9675 0.1711
vn -0.4120 0.7854 0.4620
vn -0.4452 0.7430 0.4998
vn 0.8664 -0.0405 0.4977
vn 0.8660 0.0004 0.5001
vn 0.8666 -0.0342 0.4978
vn 0.8590 -0.0445 0.5101
vn 0.8529 0.1718 0.4930
vn 0.8317 -0.2905 0.4732
vn 0.7750 -0.4411 0.4526
vn 0.8660 -0.0000 0.5000
vn 0.8622 -0.0610 0.5028
vn 0.8655 -0.0026 0.5009
vn 0.5189 -0.8118 0.2679
vn 0.8660 0.0141 0.4999
vn 0.8579 -0.1518 0.4909
vn 0.8618 -0.0991 0.4974
vn 0.8659 -0.0095 0.5001
vn 0.8404 0.2468 0.4825
vn 0.7974 -0.3848 0.4649
vn 0.8645 -0.0469 0.5005
vn 0.8651 -0.0290 0.5007
vn 0.8600 0.0234 0.5097
vn -0.5947 0.5411 0.5945
vn -0.5734 0.5771 0.5815
vn -0.5513 0.6115 0.5675
vn -0.4330 0.7500 0.5000
vn 0.8659 0.0004 0.5001
vn 0.8661 -0.0007 0.4998
vn 0.8633 -0.0610 0.5010
vn 0.8635 -0.0549 0.5014
vn 0.4019 -0.7821 0.4762
vn 0.4407 -0.7380 0.5110
vn 0.4333 -0.7498 0.5000
vn 0.4029 -0.7702 0.4945
vn 0.4267 -0.7370 0.5241
vn 0.8439 0.2078 0.4946
vn 0.8558 0.1244 0.5021
vn 0.8617 0.0299 0.5065
vn 0.4314 0.7451 0.5086
vn 0.5101 0.6148 0.6015
vn 0.4687 0.6893 0.5525
vn 0.4327 0.7507 0.4993
vn 0.4191 0.7698 0.4814
vn 0.4487 0.7302 0.5152
vn -0.4489 0.7252 0.5221
vn -0.4402 0.7412 0.5068
vn -0.4769 0.6769 0.5607
vn -0.4444 0.7386 0.5069
vn -0.3893 0.8014 0.4540
vn -0.4484 0.7273 0.5196
vn -0.4391 0.7441 0.5035
vn -0.5620 0.5493 0.6184
vn -0.4331 0.7473 0.5040
vn -0.4216 0.7628 0.4903
vn -0.4418 0.7359 0.5130
vn -0.4829 0.6682 0.5660
vn -0.4189 0.7720 0.4782
vn -0.4329 0.7490 0.5016
vn -0.4504 0.7262 0.5194
vn -0.4513 0.7283 0.5157
vn -0.4023 0.7862 0.4691
vn -0.3843 0.7978 0.4645
vn -0.4844 0.6621 0.5718
vn -0.3745 0.8253 0.4226
vn -0.4732 0.6847 0.5543
vn -0.4061 0.7814 0.4738
vn -0.4459 0.7346 0.5114
vn -0.4480 0.7317 0.5136
vn -0.3853 0.8044 0.4522
vn -0.4047 0.7788 0.4792
vn -0.4317 0.7490 0.5026
vn -0.4227 0.7612 0.4919
vn -0.4014 0.7946 0.4555
vn -0.4839 0.6660 0.5677
vn -0.4610 0.7065 0.5370
vn -0.4403 0.7416 0.5061
vn -0.4499 0.7261 0.5200
vn -0.3946 0.7958 0.4593
vn -0.4271 0.7534 0.4999
vn -0.5228 0.5774 0.6271
vn -0.4201 0.7679 0.4836
vn -0.3528 0.8377 0.4169
vn -0.3964 0.7912 0.4656
vn -0.4281 0.7568 0.4940
vn -0.4414 0.7366 0.5125
vn -0.4812 0.6702 0.5651
vn -0.4051 0.7881 0.4634
vn -0.4322 0.7503 0.5002
vn -0.4472 0.7320 0.5140
vn -0.4543 0.7219 0.5220
vn -0.4019 0.7867 0.4686
vn -0.5003 0.6329 0.5909
vn -0.3740 0.8260 0.4217
vn -0.4867 0.6632 0.5686
vn -0.4060 0.7804 0.4755
vn -0.3911 0.7976 0.4591
vn -0.4511 0.7283 0.5158
vn -0.5819 0.4906 0.6486
vn -0.4376 0.7463 0.5015
vn -0.3609 0.8373 0.4106
vn -0.4554 0.7147 0.5308
vn -0.4369 0.7458 0.5029
vn -0.4518 0.7179 0.5296
vn -0.4405 0.7440 0.5024
vn -0.4099 0.7788 0.4747
vn -0.4539 0.7224 0.5216
vn -0.4493 0.7256 0.5212
vn -0.4906 0.6508 0.5795
vn -0.4185 0.7718 0.4787
vn -0.4171 0.7713 0.4808
vn -0.4082 0.7793 0.4754
vn -0.3927 0.7972 0.4585
vn -0.4478 0.7321 0.5133
vn -0.3616 0.8274 0.4297
vn -0.5283 0.6049 0.5959
vn -0.4295 0.7541 0.4968
vn -0.3393 0.8581 0.3854
vn -0.4831 0.6812 0.5500
vn -0.5001 -0.6588 0.5620
vn -0.6047 -0.2416 0.7590
vn -0.2090 -0.9397 0.2707
vn -0.3327 0.8676 0.3695
vn -0.4159 0.7836 0.4616
vn -0.4194 0.7706 0.4798
vn -0.6296 0.4570 0.6283
vn -0.6650 0.3381 0.6659
vn -0.3860 0.8006 0.4583
vn -0.4926 0.6481 0.5808
vn -0.5100 0.6123 0.6041
vn -0.4250 0.7623 0.4882
vn -0.4568 0.7218 0.5199
vn -0.3849 0.8047 0.4520
vn -0.3536 0.8347 0.4222
vn -0.4123 0.7755 0.4782
vn -0.4868 0.6661 0.5652
vn -0.6253 0.2627 0.7348
vn -0.5046 0.6361 0.5838
vn -0.4268 0.7630 0.4855
vn -0.4529 0.7119 0.5367
vn -0.4456 0.7228 0.5282
vn -0.4261 0.7479 0.5090
vn -0.4213 0.7547 0.5030
vn -0.4951 0.6406 0.5870
vn -0.3585 0.8406 0.4061
vn -0.4941 0.6497 0.5778
vn -0.4153 0.7707 0.4833
vn -0.4057 0.7818 0.4735
vn -0.4459 0.7332 0.5134
vn -0.4407 0.7415 0.5060
vn -0.4430 0.7312 0.5187
vn -0.4820 0.6750 0.5586
vn -0.3929 0.8032 0.4478
vn -0.5272 0.5824 0.6188
vn -0.5294 0.5588 0.6383
vn -0.4056 0.7800 0.4765
vn -0.4019 0.7847 0.4720
vn -0.4945 0.6397 0.5884
vn -0.4033 0.7892 0.4632
vn -0.5443 0.5313 0.6492
vn -0.4137 0.7761 0.4759
vn -0.4440 0.7362 0.5108
vn -0.3769 0.8136 0.4427
vn -0.4162 0.7709 0.4821
vn -0.4869 0.6660 0.5651
vn -0.5433 0.5549 0.6301
vn -0.5070 0.6341 0.5839
vn -0.4403 0.7442 0.5022
vn -0.4263 0.7410 0.5189
vn -0.4167 0.7544 0.5071
vn -0.3973 0.7894 0.4679
vn -0.3930 0.7947 0.4627
vn -0.4879 0.6553 0.5766
vn -0.3654 0.8344 0.4126
vn -0.4979 0.6428 0.5822
vn -0.4175 0.7688 0.4843
vn -0.4422 0.7376 0.5103
vn -0.4466 0.7319 0.5147
vn -0.3950 0.7954 0.4596
vn -0.4936 0.6572 0.5696
vn -0.3903 0.8060 0.4451
vn -0.5519 0.5346 0.6399
vn -0.5760 0.4284 0.6961
vn -0.4099 0.7689 0.4907
vn -0.3907 0.7932 0.4670
vn -0.4901 0.6518 0.5787
vn -0.6012 0.2926 0.7436
vn -0.4596 0.7047 0.5405
vn -0.3991 0.7897 0.4659
vn -0.4658 0.7090 0.5295
vn -0.3553 0.8336 0.4230
vn -0.4117 0.7756 0.4785
vn -0.4744 0.6882 0.5489
vn -0.3793 0.8185 0.4315
vn -0.5505 0.5345 0.6413
vn -0.3897 0.8049 0.4476
vn -0.3921 0.7957 0.4616
vn -0.4248 0.7668 0.4812
vn -0.4229 0.7731 0.4728
vn -0.4030 0.7966 0.4506
vn -0.6408 0.0262 0.7673
vn -0.1080 0.9820 0.1549
vn -0.1080 0.9864 0.1241
vn -0.4907 0.6498 0.5805
vn -0.3073 0.8861 0.3471
vn -0.4312 0.7565 0.4917
vn -0.3932 0.8031 0.4478
vn -0.4035 0.7895 0.4625
vn -0.4314 0.7535 0.4961
vn -0.4066 0.7816 0.4731
vn -0.4008 0.7883 0.4668
vn -0.4779 0.6912 0.5420
vn -0.4606 0.7145 0.5267
vn -0.4935 0.6459 0.5824
vn -0.4234 0.7655 0.4846
vn -0.4987 0.6367 0.5882
vn -0.4247 0.7631 0.4871
vn -0.4653 0.7089 0.5301
vn -0.3734 0.8155 0.4422
vn -0.4508 0.7282 0.5162
vn -0.4402 0.7410 0.5071
vn -0.5910 0.3714 0.7160
vn -0.4313 0.7578 0.4897
vn -0.3928 0.8045 0.4455
vn -0.4018 0.7910 0.4614
vn -0.4106 0.7806 0.4713
vn -0.4341 0.7490 0.5005
vn -0.4036 0.7857 0.4688
vn -0.4011 0.7883 0.4665
vn -0.4777 0.6910 0.5426
vn -0.3954 0.7946 0.4608
vn -0.4119 0.7792 0.4724
vn -0.4405 0.7503 0.4929
vn -0.4185 0.7786 0.4677
vn -0.4468 0.7307 0.5163
vn -0.3884 0.8089 0.4414
vn -0.4266 0.7604 0.4897
vn -0.4108 0.7766 0.4776
vn -0.4005 0.7880 0.4676
vn -0.4761 0.6935 0.5407
vn -0.3966 0.7925 0.4633
vn -0.3889 0.8038 0.4502
vn 0.4330 0.7499 0.5001
vn 0.4997 0.6334 0.5909
vn 0.4599 0.7021 0.5437
vn 0.4241 0.7541 0.5015
vn -0.4150 0.7617 0.4975
vn -0.4336 0.7508 0.4984
vn -0.4333 0.7499 0.5000
vn -0.3915 0.7854 0.4795
vn -0.4131 0.7570 0.5062
vn -0.3931 0.8079 0.4390
vn -0.4323 0.7504 0.5000
vn -0.4243 0.7718 0.4736
vn 0.4407 -0.7389 0.5097
vn 0.4456 -0.7305 0.5174
vn 0.2746 -0.8961 0.3487
vn 0.3845 -0.8009 0.4590
vn 0.4088 -0.7931 0.4515
vn 0.5503 -0.6106 0.5696
vn 0.4329 -0.7503 0.4997
vn 0.4411 -0.7536 0.4874
vn -0.4769 -0.6878 0.5472
vn -0.4608 -0.7167 0.5235
vn -0.4086 -0.7932 0.4516
vn -0.4342 -0.7487 0.5009
vn -0.4540 -0.7294 0.5118
vn -0.4120 -0.7843 0.4639
vn -0.4284 -0.7541 0.4978
vn -0.4377 -0.7466 0.5010
vn -0.3977 -0.7915 0.4640
vn -0.5736 -0.4403 0.6907
vn -0.3999 -0.7914 0.4624
vn -0.4597 -0.7079 0.5362
vn -0.4750 -0.6936 0.5416
vn 0.3872 0.8352 0.3906
vn 0.1178 0.9896 0.0825
vn 0.4361 0.7849 0.4402
vn 0.0057 -0.9996 0.0283
vn 0.4499 0.8460 0.2860
vn 0.5058 0.8021 0.3174
vn 0.8661 -0.0006 0.4998
vn 0.8584 0.0290 0.5122
vn 0.8521 0.1272 0.5076
vn -0.8770 -0.2033 0.4354
vn -0.8892 -0.1184 0.4419
vn -0.8950 -0.0263 0.4453
vn -0.4330 -0.7500 0.5000
vn 0.4339 0.7493 0.5003
vn 0.4335 0.7499 0.4998
vn -0.3660 -0.7775 0.5113
vn -0.3685 -0.7766 0.5109
vn -0.8661 -0.0003 0.4999
vn -0.4339 -0.7497 0.4997
vn -0.3358 -0.7741 0.5366
vn -0.3639 -0.7781 0.5120
vn -0.4351 -0.7492 0.4994
vn -0.8660 -0.0004 0.5000
vn -0.3362 -0.7738 0.5368
vn -0.3685 -0.7764 0.5112
vn -0.4346 -0.7494 0.4995
vn -0.2967 -0.7838 0.5455
vn -0.5266 -0.7034 0.4774
vn -0.4328 -0.7501 0.5001
vn -0.8661 -0.0009 0.4998
vn 0.4324 0.7505 0.4998
vn -0.8659 0.0007 0.5001
vn 0.4330 0.7500 0.5000
vn -0.7745 0.3234 -0.5437
vn 0.8659 -0.0007 0.5001
vn 0.8659 -0.0009 0.5002
vn 0.8661 0.0003 0.4999
vn 0.3708 0.7759 0.5104
vn 0.3665 0.7775 0.5111
vn 0.4339 0.7497 0.4997
vn 0.3207 0.7774 0.5411
vn 0.3657 0.7774 0.5118
vn 0.4351 0.7492 0.4994
vn 0.3311 0.7748 0.5386
vn 0.3696 0.7760 0.5111
vn 0.4345 0.7494 0.4996
vn 0.3023 0.7827 0.5440
vn 0.5203 0.7068 0.4793
vn 0.4328 0.7501 0.5001
vn 0.4333 0.7498 0.5001
vn -0.2096 0.9476 0.2411
vn -0.8659 -0.0010 0.5002
vn -0.8661 0.0006 0.4998
vn -0.8661 0.0009 0.4998
vn 0.8661 0.0009 0.4998
vn 0.7876 -0.3366 -0.5161
vn -0.8659 0.0009 0.5002
vn -0.4334 -0.7499 0.4998
vn 0.4665 -0.7024 0.5376
vn 0.4356 -0.7451 0.5049
vn 0.4624 -0.7033 0.5399
vn 0.4647 -0.7013 0.5406
vn 0.3721 -0.8245 0.4263
vn 0.1993 -0.9595 0.1989
vn 0.1890 0.9579 0.2159
vn 0.0196 0.9965 0.0812
vn 0.4263 -0.7578 0.4940
vn 0.4168 -0.7685 0.4855
vn 0.5000 -0.6578 0.5634
vn 0.3841 -0.8078 0.4471
vn 0.4397 -0.7386 0.5109
vn 0.3795 -0.8195 0.4295
vn 0.4433 -0.7330 0.5159
vn 0.3837 -0.8155 0.4334
vn 0.4100 -0.7773 0.4772
vn 0.3911 -0.7975 0.4593
vn 0.4662 -0.7055 0.5338
vn 0.4334 -0.7500 0.4997
vn 0.4608 -0.7089 0.5340
vn 0.4730 -0.6961 0.5402
vn 0.3925 -0.7966 0.4598
vn 0.4691 -0.7017 0.5362
vn 0.4683 -0.7006 0.5384
vn 0.4343 -0.7476 0.5025
vn 0.4598 -0.7104 0.5328
vn 0.4666 -0.6996 0.5411
vn 0.3726 -0.8244 0.4260
vn 0.1718 -0.9714 0.1641
vn 0.1177 0.9836 0.1367
vn 0.4259 -0.7589 0.4926
vn 0.4178 -0.7683 0.4849
vn 0.5094 -0.6399 0.5753
vn 0.3870 -0.8052 0.4493
vn 0.4434 -0.7342 0.5142
vn 0.3717 -0.8288 0.4181
vn 0.4510 -0.7228 0.5236
vn 0.3366 0.8416 0.4224
vn -0.4327 -0.7501 0.5001
vn -0.0155 -0.9997 0.0210
vn -0.3536 -0.7637 0.5401
vn -0.4328 -0.7501 0.5000
vn -0.5311 -0.7332 0.4247
vn -0.3623 -0.7642 0.5336
vn -0.4684 0.6996 0.5396
vn -0.4359 0.7443 0.5060
vn -0.4626 0.7037 0.5393
vn -0.3787 0.8168 0.4353
vn -0.1990 0.9596 0.1987
vn -0.1889 -0.9579 0.2160
vn -0.0199 -0.9965 0.0815
vn -0.4256 0.7586 0.4934
vn -0.4160 0.7691 0.4851
vn -0.5062 0.6462 0.5711
vn -0.3873 0.8044 0.4505
vn -0.4397 0.7379 0.5120
vn -0.3804 0.8187 0.4302
vn -0.4429 0.7327 0.5167
vn -0.3836 0.8154 0.4336
vn -0.4057 0.7818 0.4734
vn -0.3907 0.7975 0.4598
vn -0.4660 0.7056 0.5338
vn -0.4334 0.7500 0.4997
vn -0.4565 0.7149 0.5297
vn -0.4731 0.6961 0.5400
vn -0.3924 0.7966 0.4598
vn -0.4668 0.7051 0.5339
vn -0.4688 0.6998 0.5389
vn -0.4334 0.7493 0.5007
vn -0.4567 0.7146 0.5299
vn -0.4665 0.6997 0.5411
vn -0.3732 0.8238 0.4267
vn -0.1718 0.9714 0.1642
vn -0.1137 -0.9847 0.1320
vn -0.4249 0.7598 0.4921
vn -0.4168 0.7692 0.4843
vn -0.5041 0.6510 0.5675
vn -0.3862 0.8059 0.4487
vn -0.4375 0.7424 0.5074
vn -0.3762 0.8241 0.4234
vn -0.4509 0.7227 0.5239
vn -0.3517 -0.8250 0.4424
vn 0.8370 -0.2521 0.4857
vn 0.8658 0.0132 0.5003
vn 0.8626 0.0932 0.4973
vn 0.8657 -0.0001 0.5005
vn 0.8543 0.1465 0.4987
vn 0.8656 -0.0138 0.5006
vn 0.2952 0.1144 0.9486
vn 0.7940 -0.3971 0.4604
vn 0.8658 0.0003 0.5004
vn 0.4328 0.7501 0.5000
vn 0.0154 0.9997 0.0209
vn 0.3532 0.7644 0.5394
vn 0.5312 0.7330 0.4249
vn 0.3670 0.7570 0.5406
vn -0.8376 0.2488 0.4862
vn -0.8657 0.0001 0.5005
vn -0.8625 -0.0935 0.4973
vn -0.8549 -0.1421 0.4990
vn -0.2831 -0.1269 0.9506
vn -0.7940 0.3970 0.4604
vn -0.8658 -0.0003 0.5004
vt 0.000000 0.000000
s 0
usemtl 0.917647_0.917647_0.917647_0.000000_0.450980
f 95/51/35 102/51/36 103/51/37
f 103/51/38 105/51/39 95/51/40
f 115/51/41 95/51/41 108/51/41
f 772/51/42 769/51/43 773/51/44 781/51/45
f 714/51/46 713/51/47 709/51/48 716/51/49
f 1288/51/50 1289/51/51 1291/51/52 1290/51/53 1280/51/54 1293/51/55 1208/51/56 1211/51/57 1210/51/54 1213/51/58 1216/51/54 1215/51/59 1212/51/60 1209/51/61 1207/51/62 1283/51/63 1281/51/64 1292/51/65
f 207/51/66 210/51/67 206/51/68
f 212/51/69 213/51/70 214/51/71
f 222/51/72 229/51/73 108/51/74
f 229/51/75 231/51/76 108/51/77
f 92/51/78 93/51/79 212/51/80 233/51/81
f 93/51/82 94/51/83 212/51/84
f 239/51/85 240/51/86 241/51/87
f 323/51/88 247/51/89 234/51/90
f 239/51/91 253/51/92 249/51/93
f 241/51/94 253/51/95 239/51/96
f 268/51/97 262/51/98 259/51/99 276/51/100 267/51/101
f 262/51/102 270/51/103 271/51/104
f 147/51/105 145/51/106 138/51/107 137/51/108 136/51/109 135/51/110 146/51/111
f 268/51/112 270/51/113 262/51/114
f 279/51/115 283/51/116 277/51/117 284/51/118 278/51/119
f 283/51/120 295/51/121 286/51/122
f 279/51/123 295/51/124 283/51/125
f 85/51/126 86/51/127 87/51/128 88/51/129 89/51/130 90/51/131 91/51/132 92/51/133 233/51/134 239/51/135 249/51/136 255/51/137 254/51/138 251/51/139 252/51/140 256/51/141 257/51/142 248/51/143 247/51/144 323/51/145 234/51/146 238/51/147 245/51/148 246/51/149 244/51/150 236/51/151 237/51/152 250/51/153 243/51/154 242/51/155 235/51/145 262/51/156 271/51/157 260/51/158 261/51/159 263/51/160 266/51/161 274/51/162 275/51/163 269/51/164 258/51/165 264/51/166 265/51/167 272/51/168 273/51/169 276/51/170 259/51/145 283/51/171 286/51/172 294/51/173 296/51/174 292/51/175 293/51/145 290/51/176 291/51/177 282/51/178 289/51/179 288/51/180 285/51/181 280/51/182 281/51/183 287/51/184 284/51/185 277/51/145 297/51/186 300/51/187 308/51/188 307/51/189 311/51/190 312/51/191 313/51/192 314/51/193 310/51/194 306/51/195 305/51/196 303/51/197 304/51/198 302/51/199 298/51/200 299/51/201 309/51/202 301/51/203 320/51/204 321/51/205 315/51/206 317/51/207 318/51/208 316/51/209 319/51/210 322/51/211 116/51/212 125/51/213 126/51/214 122/51/215 121/51/216 117/51/217 118/51/218 120/51/219 123/51/220 119/51/221 132/51/222 131/51/223 129/51/224 130/51/225 127/51/226 128/51/227 124/51/228 136/51/229 137/51/230 133/51/231 134/51/232 143/51/233 144/51/234 141/51/235 142/51/236 150/51/237 140/51/238 139/51/239 148/51/240 149/51/241 146/51/242 135/51/243 153/51/244 164/51/245 152/51/246 151/51/247 154/51/248 155/51/249 156/51/250 159/51/251 160/51/252 167/51/253 166/51/254 165/51/255 163/51/256 161/51/257 162/51/258 158/51/259 157/51/260 169/51/261 173/51/262 168/51/263 172/51/264 176/51/265 183/51/266 184/51/267 181/51/268 182/51/269 185/51/270 175/51/271 179/51/272 180/51/273 177/51/274 170/51/275 186/51/276 195/51/277 194/51/278 188/51/279 192/51/280 190/51/281 191/51/282 193/51/283 189/51/284 203/51/285 202/51/286 204/51/287 200/51/288 201/51/289 198/51/290 199/51/291 196/51/292 187/51/145 209/51/293 205/51/294 207/51/295 206/51/296 208/51/297 95/51/298 105/51/299 98/51/300 99/51/301 101/51/302 96/51/303 97/51/304 114/51/305 104/51/306 100/51/307 107/51/308 113/51/309 111/51/310 112/51/311 109/51/312 110/51/313 106/51/314 115/51/315 108/51/316 231/51/317 228/51/318 220/51/319 221/51/320 226/51/321 227/51/322 232/51/323 225/51/324 230/51/325 213/51/145 212/51/326 94/51/327 77/51/328 78/51/329 79/51/330 80/51/331 81/51/332 82/51/333 83/51/334 84/51/335
f 115/51/336 102/51/337 95/51/338
f 349/51/339 351/51/340 352/51/341
f 240/51/342 239/51/343 235/51/344 242/51/345
f 352/51/346 342/51/347 349/51/348
f 551/51/349 419/51/350 420/51/351
f 349/51/352 455/51/353 458/51/354
f 468/51/355 473/51/356 455/51/357
f 841/51/358 840/51/359 850/51/360 842/51/361
f 481/51/362 482/51/363 483/51/364
f 222/51/365 108/51/366 211/51/367 212/51/368 214/51/369 219/51/370 224/51/371 217/51/372 218/51/373 215/51/374 216/51/375 223/51/376
f 128/51/377 125/51/378 116/51/378 124/51/379
f 178/51/380 174/51/381 171/51/382 173/51/383 169/51/384 170/51/385 177/51/386
f 697/51/387 583/51/387 686/51/388 687/51/389 689/51/390 694/51/391 699/51/392 692/51/393 693/51/394 690/51/395 691/51/396 698/51/397
f 473/51/398 458/51/399 455/51/400
f 352/51/401 345/51/402 342/51/403
f 571/51/404 577/51/405 578/51/406
f 578/51/407 580/51/408 571/51/409
f 590/51/410 571/51/410 583/51/410
f 653/51/411 649/51/412 647/51/413 648/51/414 645/51/415 646/51/416 652/51/417
f 623/51/418 621/51/419 614/51/420 613/51/421 612/51/422 611/51/423 622/51/424
f 634/51/425 641/51/426 629/51/427 633/51/428
f 682/51/429 685/51/430 681/51/431
f 331/51/432 332/51/433 456/51/434 481/51/435 483/51/436 489/51/437 490/51/434 491/51/438 487/51/439 488/51/440 486/51/441 485/51/442 484/51/443 329/51/444 330/51/445
f 687/51/446 688/51/447 689/51/448
f 697/51/449 704/51/450 583/51/451
f 704/51/452 706/51/453 583/51/454
f 567/51/455 568/51/456 687/51/456 708/51/457
f 568/51/458 569/51/459 687/51/460
f 713/51/461 714/51/462 715/51/463
f 713/51/464 726/51/465 722/51/466
f 715/51/467 726/51/468 713/51/469
f 746/51/470 740/51/471 741/51/472 735/51/473 732/51/474 745/51/475
f 528/51/476 534/51/477 539/51/478 538/51/479 535/51/480 532/51/481 533/51/482 537/51/483
f 735/51/484 743/51/485 744/51/486
f 741/51/487 743/51/488 735/51/489
f 751/51/490 755/51/490 749/51/491 756/51/492 750/51/493
f 755/51/494 767/51/495 758/51/496
f 751/51/497 767/51/498 755/51/499
f 839/51/500 837/51/501 825/51/501 836/51/502
f 892/51/503 893/51/504 895/51/505 894/51/506 884/51/507 897/51/508 809/51/509 812/51/510 811/51/511 814/51/512 817/51/507 816/51/513 813/51/514 810/51/515 808/51/516 887/51/517 885/51/518 896/51/519
f 590/51/520 577/51/521 571/51/522
f 795/51/523 591/51/523 570/51/523
f 874/51/524 869/51/525 872/51/526 873/51/527
f 197/51/528 195/51/529 186/51/530 187/51/531 196/51/532
f 823/51/533 812/51/534 809/51/535
f 1001/51/536 1003/51/537 1004/51/538
f 1004/51/539 994/51/540 1001/51/541
f 560/51/542 561/51/543 562/51/544 563/51/545 564/51/546 565/51/547 566/51/548 567/51/549 708/51/523 713/51/550 722/51/551 728/51/552 727/51/553 724/51/554 725/51/555 729/51/556 730/51/557 721/51/558 720/51/559 712/51/560 719/51/561 718/51/562 710/51/563 711/51/564 723/51/565 717/51/566 716/51/567 709/51/523 735/51/568 744/51/569 733/51/570 734/51/571 736/51/572 739/51/573 747/51/574 748/51/575 742/51/576 731/51/577 737/51/578 738/51/579 745/51/580 732/51/523 755/51/523 758/51/581 766/51/582 768/51/583 764/51/584 765/51/585 762/51/586 763/51/587 754/51/588 761/51/589 760/51/590 757/51/591 752/51/592 753/51/593 759/51/594 756/51/595 749/51/523 769/51/596 772/51/597 779/51/598 780/51/599 783/51/600 784/51/601 785/51/602 786/51/603 782/51/604 778/51/605 777/51/606 775/51/607 776/51/608 774/51/609 770/51/610 771/51/611 781/51/612 773/51/613 792/51/614 793/51/615 787/51/616 789/51/617 790/51/618 788/51/619 791/51/620 591/51/523 795/51/523 570/51/523 794/51/621 592/51/622 601/51/623 602/51/624 598/51/625 597/51/626 593/51/627 594/51/628 596/51/629 599/51/630 595/51/631 608/51/632 607/51/633 605/51/634 606/51/635 603/51/636 604/51/637 600/51/523 612/51/638 613/51/639 609/51/640 610/51/641 619/51/642 620/51/643 617/51/644 618/51/645 626/51/646 616/51/647 615/51/648 624/51/649 625/51/650 622/51/651 611/51/523 629/51/652 641/51/653 628/51/654 627/51/655 630/51/656 631/51/657 632/51/523 635/51/658 636/51/659 643/51/660 640/51/661 642/51/662 639/51/663 637/51/664 638/51/665 634/51/666 633/51/523 645/51/667 648/51/668 644/51/669 651/51/670 658/51/671 659/51/672 656/51/673 657/51/674 660/51/675 650/51/676 654/51/677 655/51/678 652/51/679 646/51/523 661/51/680 670/51/681 669/51/682 663/51/683 667/51/684 665/51/685 666/51/686 668/51/687 664/51/688 678/51/689 677/51/690 679/51/691 675/51/692 676/51/693 673/51/694 674/51/695 671/51/696 662/51/523 684/51/697 680/51/698 682/51/699 681/51/700 683/51/701 571/51/702 580/51/703 574/51/704 576/51/705 572/51/706 573/51/707 589/51/708 579/51/709 575/51/710 582/51/711 588/51/712 586/51/713 587/51/714 584/51/715 585/51/716 581/51/717 590/51/718 583/51/719 706/51/720 703/51/721 695/51/722 696/51/723 701/51/724 702/51/725 707/51/726 700/51/727 705/51/728 688/51/523 687/51/729 569/51/730 552/51/731 553/51/732 554/51/733 555/51/734 556/51/735 557/51/736 558/51/737 559/51/738
f 1001/51/739 1104/51/739 1107/51/739
f 1117/51/740 1121/51/741 1104/51/742
f 672/51/743 670/51/744 661/51/745 662/51/746 671/51/747
f 604/51/748 601/51/749 592/51/749 600/51/750
f 300/51/751 297/51/752 301/51/753 309/51/754
f 158/51/755 164/51/756 153/51/757 157/51/758
f 494/51/759 506/51/760 504/51/761 496/51/762 515/51/763 513/51/764 516/51/765 517/51/766 524/51/767 522/51/768 523/51/769 521/51/770 520/51/771
f 1121/51/772 1107/51/773 1104/51/774
f 1004/51/775 997/51/776 994/51/777
f 858/51/778 855/51/778 857/51/779 864/51/780
f 1222/51/781 1211/51/782 1208/51/783
f 550/51/784 546/51/784 547/51/784 549/51/784 544/51/784 545/51/784 360/51/784 372/51/784 361/51/784 362/51/784 365/51/784 367/51/784 366/51/784 364/51/784 363/51/784 370/51/784 368/51/784 369/51/784 377/51/784 373/51/784 374/51/784 376/51/784 375/51/784 297/51/784 277/51/784 383/51/784 393/51/784 394/51/784 381/51/784 382/51/784 379/51/784 380/51/784 378/51/784 391/51/784 392/51/784 389/51/784 390/51/784 388/51/784 386/51/784 387/51/784 384/51/784 283/51/784 259/51/784 409/51/784 406/51/784 405/51/784 395/51/784 396/51/784 397/51/784 408/51/784 404/51/784 402/51/784 403/51/784 407/51/784 400/51/784 401/51/784 398/51/784 262/51/784 235/51/784 413/51/784 418/51/784 421/51/784 416/51/784 417/51/784 414/51/784 415/51/784 412/51/784 429/51/784 419/51/784 551/51/784 420/51/784 427/51/784 428/51/784 425/51/784 426/51/784 423/51/784 424/51/784 422/51/784 410/51/784 239/51/784 233/51/784 445/51/784 442/51/784 443/51/784 440/51/784 441/51/784 436/51/784 432/51/784 435/51/784 439/51/784 438/51/784 444/51/784 437/51/784 434/51/784 430/51/784 431/51/784 433/51/784 446/51/784 212/51/784 342/51/784 345/51/784 344/51/784 356/51/784 348/51/784 346/51/784 347/51/784 341/51/784 340/51/784 343/51/784 350/51/784 355/51/784 359/51/784 353/51/784 354/51/784 358/51/784 357/51/784 351/51/784 349/51/784 458/51/784 471/51/784 472/51/784 463/51/784 464/51/784 467/51/784 462/51/784 459/51/784 457/51/784 454/51/784 460/51/784 461/51/784 465/51/784 466/51/784 470/51/784 469/51/784 468/51/784 455/51/784 453/51/784 449/51/784 450/51/784 451/51/784 448/51/784 452/51/784 456/51/784 332/51/784 333/51/784 334/51/784 335/51/784 336/51/784 337/51/784 338/51/784 339/51/784 324/51/784 325/51/784 326/51/784 327/51/784 328/51/784 329/51/784 484/51/784 479/51/784 480/51/784 474/51/784 475/51/784 477/51/784 478/51/784 476/51/784 482/51/784 481/51/784 496/51/784 504/51/784 505/51/784 502/51/784 503/51/784 500/51/784 497/51/784 501/51/784 507/51/784 499/51/784 495/51/784 492/51/784 493/51/784 498/51/784 494/51/784 520/51/784 518/51/784 519/51/784 508/51/784 509/51/784 511/51/784 514/51/784 510/51/784 512/51/784 513/51/784 515/51/784 528/51/784 537/51/784 531/51/784 530/51/784 542/51/784 540/51/784 541/51/784 526/51/784 527/51/784 529/51/784 525/51/784 536/51/784 539/51/784 534/51/784 543/51/784 548/51/784
f 1178/51/785 1183/51/785 1182/51/785 1179/51/785 1176/51/785 1177/51/785 1181/51/785 836/51/785
f 1023/51/786 1024/51/786 1012/51/786 769/51/786
f 375/51/787 371/51/787 297/51/787
f 283/51/788 384/51/788 385/51/788
f 1313/51/789 646/51/789 645/51/789 1315/51/789
f 385/51/790 277/51/790 283/51/790
f 385/51/791 383/51/791 277/51/791
f 262/51/792 398/51/792 399/51/792
f 399/51/793 259/51/793 262/51/793
f 1237/51/794 1235/51/794 1224/51/794 528/51/794
f 399/51/795 409/51/795 259/51/795
f 239/51/796 410/51/796 411/51/796
f 411/51/797 235/51/797 239/51/797
f 411/51/798 413/51/798 235/51/798
f 446/51/799 447/51/799 212/51/799
f 447/51/800 445/51/800 233/51/800 212/51/800
f 1329/51/801 633/51/801 629/51/801 1333/51/801 1325/51/801
f 1150/51/802 857/51/802 840/51/802 1159/51/802 1161/51/802 1162/51/802 1169/51/802 1167/51/802 1168/51/802 1166/51/802 1165/51/802 1141/51/802 1152/51/802
f 1335/51/803 1336/51/803 611/51/803 612/51/803 1338/51/803 1346/51/803 1343/51/803
f 1364/51/54 1361/51/54 1362/51/54 1363/51/54 1366/51/54 1367/51/54 1368/51/54 1369/51/54 1370/51/54 1224/51/54 1235/51/54 1236/51/54 1234/51/54 1232/51/54 1233/51/54 1225/51/54 1227/51/54 1228/51/54 1231/51/54 1230/51/54 1226/51/54 1229/51/54 1237/51/54 528/51/54 1238/51/54 1239/51/54 1240/51/54 1246/51/54 1244/51/54 1245/51/54 1251/51/54 1248/51/54 1243/51/54 1241/51/54 1242/51/54 1249/51/54 1250/51/54 1247/51/54 515/51/54 1252/51/54 1255/51/54 1264/51/54 1263/51/54 1260/51/54 1261/51/54 1253/51/54 1265/51/54 1259/51/54 1257/51/54 1258/51/54 1262/51/54 1256/51/54 1254/51/54 496/51/54 1266/51/54 1270/51/54 1272/51/54 1271/51/54 1267/51/54 1268/51/54 1276/51/54 1279/51/54 1275/51/54 1273/51/54 1274/51/54 1277/51/54 1278/51/54 1269/51/54 481/51/54 1280/51/54 1290/51/54 1285/51/54 1287/51/54 1286/51/54 1284/51/54 1282/51/54 1283/51/54 1207/51/54 1214/51/54 1223/51/54 1220/51/54 1221/51/54 1218/51/54 1219/51/54 1222/51/54 1208/51/54 1217/51/54 1302/51/54 1301/51/54 1305/51/54 1308/51/54 1304/51/54 1303/51/54 1309/51/54 1296/51/54 1195/51/54 1196/51/54 1197/51/54 1198/51/54 1199/51/54 1200/51/54 1201/51/54 1202/51/54 1203/51/54 661/51/54 646/51/54 1314/51/54 1318/51/54 1317/51/54 1321/51/54 1316/51/54 1310/51/54 1311/51/54 1312/51/54 1320/51/54 1319/51/54 1322/51/54 1315/51/54 645/51/54 633/51/54 1329/51/54 1332/51/54 1331/51/54 1328/51/54 1323/51/54 1324/51/54 1327/51/54 1326/51/54 1330/51/54 1334/51/54 1333/51/54 629/51/54 611/51/54 1336/51/54 1337/51/54 1342/51/54 1341/51/54 1339/51/54 1340/51/54 1345/51/54 1344/51/54 1338/51/54 612/51/54 600/51/54 1348/51/54 1360/51/54 1359/51/54 1358/51/54 1356/51/54 1357/51/54 1355/51/54 1347/51/54 1354/51/54 1353/51/54 1351/51/54 1350/51/54 1352/51/54 1349/51/54 1365/51/54
f 1194/51/804 1190/51/804 1191/51/804 1193/51/804 1188/51/804 1189/51/804 1012/51/804 1024/51/804 1013/51/804 1014/51/804 1017/51/804 1019/51/804 1018/51/804 1016/51/804 1015/51/804 1022/51/804 1020/51/804 1021/51/804 1029/51/804 1025/51/804 1026/51/804 1028/51/804 1027/51/804 769/51/804 749/51/804 1035/51/804 1045/51/804 1046/51/804 1033/51/804 1034/51/804 1031/51/804 1032/51/804 1030/51/804 1043/51/804 1044/51/804 1041/51/804 1042/51/804 1040/51/804 1038/51/804 1039/51/804 1036/51/804 755/51/804 732/51/804 1061/51/804 1058/51/804 1057/51/804 1047/51/804 1048/51/804 1049/51/804 1060/51/804 1056/51/804 1054/51/804 1055/51/804 1059/51/804 1052/51/804 1053/51/804 1050/51/804 735/51/804 709/51/804 1065/51/804 1070/51/804 1072/51/804 1068/51/804 1069/51/804 1066/51/804 1067/51/804 1062/51/804 1071/51/804 1078/51/804 1079/51/804 1076/51/804 1077/51/804 1074/51/804 1075/51/804 1073/51/804 1063/51/804 713/51/804 708/51/804 1095/51/804 1092/51/804 1093/51/804 1090/51/804 1091/51/804 1086/51/804 1082/51/804 1085/51/804 1089/51/804 1088/51/804 1094/51/804 1087/51/804 1084/51/804 1080/51/804 1081/51/804 1083/51/804 1096/51/804 687/51/804 994/51/804 997/51/804 996/51/804 1008/51/804 1000/51/804 998/51/804 999/51/804 993/51/804 992/51/804 995/51/804 1002/51/804 1007/51/804 1011/51/804 1005/51/804 1006/51/804 1010/51/804 1009/51/804 1003/51/804 1001/51/804 1107/51/804 1119/51/804 1120/51/804 1112/51/804 1113/51/804 1116/51/804 1111/51/804 1108/51/804 1106/51/804 1103/51/804 1109/51/804 1110/51/804 1114/51/804 1115/51/804 1118/51/804 1117/51/804 1104/51/804 1099/51/804 1100/51/804 1101/51/804 1098/51/804 1102/51/804 1105/51/804 984/51/804 985/51/804 986/51/804 987/51/804 988/51/804 989/51/804 990/51/804 991/51/804 976/51/804 977/51/804 978/51/804 979/51/804 980/51/804 981/51/804 1131/51/804 1127/51/804 1128/51/804 1122/51/804 1123/51/804 1125/51/804 1126/51/804 1124/51/804 1129/51/804 872/51/804 857/51/804 1150/51/804 1151/51/804 1148/51/804 1149/51/804 1146/51/804 1145/51/804 1147/51/804 1153/51/804 1144/51/804 1142/51/804 1139/51/804 1140/51/804 1143/51/804 1141/51/804 1165/51/804 1163/51/804 1164/51/804 1154/51/804 1155/51/804 1157/51/804 1160/51/804 1156/51/804 1158/51/804 1159/51/804 840/51/804 836/51/804 1181/51/804 1175/51/804 1174/51/804 1186/51/804 1184/51/804 1185/51/804 1171/51/804 1172/51/804 1173/51/804 1170/51/804 1180/51/804 1183/51/804 1178/51/804 1187/51/804 1192/51/804
f 969/51/507 966/51/507 967/51/507 968/51/507 971/51/507 972/51/507 973/51/507 974/51/507 975/51/507 825/51/507 837/51/507 838/51/507 835/51/507 833/51/507 834/51/507 826/51/507 828/51/507 829/51/507 832/51/507 831/51/507 827/51/507 830/51/507 839/51/507 836/51/507 841/51/507 842/51/507 843/51/507 849/51/507 847/51/507 848/51/507 854/51/507 851/51/507 846/51/507 844/51/507 845/51/507 852/51/507 853/51/507 850/51/507 840/51/507 855/51/507 858/51/507 867/51/507 866/51/507 862/51/507 863/51/507 856/51/507 868/51/507 861/51/507 859/51/507 860/51/507 865/51/507 864/51/507 857/51/507 869/51/507 874/51/507 876/51/507 875/51/507 870/51/507 871/51/507 880/51/507 883/51/507 879/51/507 877/51/507 878/51/507 881/51/507 882/51/507 873/51/507 872/51/507 884/51/507 894/51/507 889/51/507 891/51/507 890/51/507 888/51/507 886/51/507 887/51/507 808/51/507 815/51/507 824/51/507 821/51/507 822/51/507 819/51/507 820/51/507 823/51/507 809/51/507 818/51/507 906/51/507 905/51/507 909/51/507 912/51/507 908/51/507 907/51/507 913/51/507 900/51/507 796/51/507 797/51/507 798/51/507 799/51/507 800/51/507 801/51/507 802/51/507 803/51/507 804/51/507 186/51/507 170/51/507 918/51/507 922/51/507 921/51/507 925/51/507 920/51/507 914/51/507 915/51/507 916/51/507 924/51/507 923/51/507 926/51/507 919/51/507 169/51/507 157/51/507 933/51/507 936/51/507 935/51/507 932/51/507 927/51/507 928/51/507 931/51/507 930/51/507 934/51/507 938/51/507 937/51/507 153/51/507 135/51/507 940/51/507 941/51/507 947/51/507 946/51/507 944/51/507 945/51/507 950/51/507 949/51/507 942/51/507 136/51/507 124/51/507 953/51/507 965/51/507 964/51/507 963/51/507 961/51/507 962/51/507 960/51/507 952/51/507 959/51/507 958/51/507 956/51/507 955/51/507 957/51/507 954/51/507 970/51/507
f 917/51/805 918/51/805 170/51/805
f 939/51/806 940/51/806 135/51/806 136/51/806 942/51/806 943/51/806 951/51/806 948/51/806
f 954/51/807 957/51/807 953/51/807 124/51/807
f 917/51/808 170/51/808 169/51/808 919/51/808
f 1027/51/809 1023/51/809 769/51/809
f 755/51/810 1036/51/810 1037/51/810
f 1037/51/811 749/51/811 755/51/811
f 1037/51/812 1035/51/812 749/51/812
f 735/51/813 1050/51/813 1051/51/813
f 1051/51/814 732/51/814 735/51/814
f 1051/51/815 1061/51/815 732/51/815
f 713/51/816 1063/51/816 1064/51/816
f 1064/51/817 709/51/817 713/51/817
f 1064/51/818 1065/51/818 709/51/818
f 1096/51/819 1097/51/819 687/51/819
f 1097/51/820 1095/51/820 708/51/820 687/51/820
f 981/51/821 982/51/821 983/51/821 984/51/821 1105/51/821 872/51/821 1130/51/821 1136/51/821 1137/51/821 1138/51/821 1134/51/821 1135/51/821 1133/51/821 1132/51/821 1131/51/821
f 1206/51/54 1195/51/54 1296/51/54 1300/51/54 1307/51/54 1306/51/54 1294/51/54 1295/51/54 1299/51/54 1298/51/54 1302/51/54 1217/51/54 1297/51/54 661/51/54 1203/51/54 1204/51/54 1205/51/54
f 872/51/822 1129/51/822 1130/51/822
f 1238/51/823 515/51/823 1247/51/823 1239/51/823
f 1270/51/824 1266/51/824 481/51/824 1269/51/824
f 1255/51/825 1252/51/825 496/51/825 1254/51/825
f 807/51/507 796/51/507 900/51/507 904/51/507 911/51/507 910/51/507 898/51/507 899/51/507 903/51/507 902/51/507 906/51/507 818/51/507 901/51/507 186/51/507 804/51/507 805/51/507 806/51/507
f 933/51/826 157/51/826 153/51/826 937/51/826 929/51/826
f 646/51/827 1313/51/827 1314/51/827
f 1349/51/828 1352/51/828 1348/51/828 600/51/828
f 371/51/829 372/51/829 360/51/829 297/51/829
f 96/51/830 101/51/831 99/51/832 98/51/833 105/51/834 103/51/835 102/51/836 115/51/837 106/51/838 110/51/839 109/51/840 112/51/841 111/51/842 113/51/843 107/51/844 100/51/845 104/51/846 114/51/847 97/51/848
f 213/51/849 230/51/850 225/51/851 232/51/852 227/51/853 226/51/854 221/51/855 220/51/856 228/51/857 231/51/858 229/51/859 222/51/860 223/51/861 216/51/862 215/51/863 218/51/864 217/51/865 224/51/866 219/51/867 214/51/868
f 341/51/869 347/51/869 346/51/869 348/51/869 356/51/869 344/51/869 345/51/869 352/51/870 351/51/871 357/51/869 358/51/869 354/51/869 353/51/869 359/51/869 355/51/869 350/51/869 343/51/869 340/51/869
f 459/51/872 462/51/872 467/51/872 464/51/872 463/51/872 472/51/872 471/51/872 458/51/872 473/51/873 468/51/874 469/51/872 470/51/872 466/51/872 465/51/872 461/51/872 460/51/872 454/51/872 457/51/872
f 572/51/875 576/51/876 574/51/877 580/51/878 578/51/879 577/51/880 590/51/881 581/51/882 585/51/883 584/51/884 587/51/885 586/51/886 588/51/887 582/51/888 575/51/889 579/51/890 589/51/891 573/51/892
f 688/51/893 705/51/894 700/51/895 707/51/896 702/51/897 701/51/898 696/51/899 695/51/900 703/51/901 706/51/902 704/51/903 697/51/904 698/51/905 691/51/906 690/51/907 693/51/908 692/51/909 699/51/910 694/51/911 689/51/912
f 810/51/913 813/51/914 816/51/915 817/51/916 814/51/917 811/51/918 812/51/919 823/51/916 820/51/916 819/51/916 822/51/916 821/51/916 824/51/916 815/51/916 808/51/920
f 898/51/921 910/51/921 911/51/921 904/51/921 900/51/921 913/51/921 907/51/921 908/51/921 912/51/921 909/51/921 905/51/921 906/51/921 902/51/921 903/51/921 899/51/921
f 993/51/922 999/51/922 998/51/922 1000/51/922 1008/51/922 996/51/922 997/51/922 1004/51/923 1003/51/924 1009/51/922 1010/51/922 1006/51/922 1005/51/922 1011/51/922 1007/51/922 1002/51/922 995/51/922 992/51/922
f 1108/51/820 1111/51/820 1116/51/820 1113/51/820 1112/51/820 1120/51/820 1119/51/820 1107/51/820 1121/51/925 1117/51/926 1118/51/820 1115/51/820 1114/51/820 1110/51/820 1109/51/820 1103/51/820 1106/51/820
f 1209/51/927 1212/51/928 1215/51/929 1216/51/928 1213/51/930 1210/51/928 1211/51/931 1222/51/928 1219/51/928 1218/51/928 1221/51/928 1220/51/928 1223/51/928 1214/51/928 1207/51/932
f 1294/51/933 1306/51/933 1307/51/933 1300/51/933 1296/51/933 1309/51/933 1303/51/933 1304/51/933 1308/51/933 1305/51/933 1301/51/933 1302/51/933 1298/51/933 1299/51/933 1295/51/933
